<svg width="34" height="33" viewBox="0 0 34 33" fill="none" xmlns="http://www.w3.org/2000/svg">
<path d="M1.84814 10.9234H15.055L16.0709 12.9176H2.86406L1.84814 10.9234ZM3.20269 14.9117H16.4095L17.4254 16.9058H4.2186L3.20269 14.9117ZM25.2141 25.547C26.3384 25.547 27.2459 24.6563 27.2459 23.5529C27.2459 22.4494 26.3384 21.5587 25.2141 21.5587C24.0898 21.5587 23.1823 22.4494 23.1823 23.5529C23.1823 24.6563 24.0898 25.547 25.2141 25.547ZM27.2459 13.5823H23.8595V16.9058H29.9008L27.2459 13.5823ZM11.6686 25.547C12.7929 25.547 13.7004 24.6563 13.7004 23.5529C13.7004 22.4494 12.7929 21.5587 11.6686 21.5587C10.5443 21.5587 9.63679 22.4494 9.63679 23.5529C9.63679 24.6563 10.5443 25.547 11.6686 25.547ZM27.9232 11.5882L31.9868 16.9058V23.5529H29.2777C29.2777 25.7597 27.4626 27.5411 25.2141 27.5411C22.9655 27.5411 21.1504 25.7597 21.1504 23.5529H15.7323C15.7323 25.7597 13.9036 27.5411 11.6686 27.5411C9.42007 27.5411 7.60497 25.7597 7.60497 23.5529H4.89588V18.8999H7.60497V20.894H8.63443C9.37943 20.0831 10.4631 19.5646 11.6686 19.5646C12.8742 19.5646 13.9578 20.0831 14.7028 20.894H21.1504V8.92933H4.89588C4.89588 7.45368 6.10142 6.27051 7.60497 6.27051H23.8595V11.5882H27.9232Z" fill="black"/>
</svg>
