<svg width="206" height="229" viewBox="0 0 206 229" fill="none" xmlns="http://www.w3.org/2000/svg">
<g filter="url(#filter0_d_2593_938)">
<path d="M199.559 11.6091C197.865 3.71216 190.603 -1.19588 182.74 0.258108C179.005 0.948835 175.566 2.86237 172.742 5.38505C171.2 6.76213 169.815 8.33342 168.643 10.0407C168.115 10.8087 167.64 11.6084 167.213 12.4373C166.891 13.0617 166.597 13.7007 166.324 14.3483C165.966 15.1996 166.128 15.4525 165.255 15.5001C163.749 15.5822 161.544 14.4989 160.044 14.14C157.97 13.6438 155.885 13.1948 153.793 12.7839C149.343 11.9102 144.861 11.2087 140.365 10.6327C130.341 9.34876 120.241 8.67933 110.142 8.45268C90.101 8.00295 69.745 9.01856 50.0614 13.0422C48.1997 13.4228 46.3441 13.8348 44.4977 14.2851C43.5213 14.5233 42.5474 14.772 41.5767 15.0328C41.1986 15.1344 40.8209 15.2378 40.4438 15.3431C39.351 15.6484 39.7106 15.7782 39.0787 14.9975C38.4416 14.2103 38.0803 12.6962 37.5741 11.7866C37.0672 10.8758 36.4933 10.0106 35.869 9.17733C34.5829 7.46077 33.0996 5.89666 31.4314 4.55326C25.9475 0.137068 18.0409 -1.86094 11.8055 2.219C3.89766 7.39323 3.89108 18.3606 7.6902 26.097C8.68766 28.1281 9.9376 30.0194 11.4628 31.6873C12.2641 32.5634 13.1334 33.3765 14.052 34.1263C14.5742 34.5526 16.0066 35.2512 16.2932 35.7841C16.5946 36.3445 16.5092 37.5133 16.5865 38.1319C17.7972 47.8251 19.0079 57.5183 20.2187 67.2114C22.0643 81.9877 23.8368 96.7726 25.6766 111.553C27.4977 126.183 29.3527 140.809 31.1674 155.44C31.5926 158.868 32.1053 162.299 32.4445 165.737C32.9262 170.62 34.8421 174.127 38.7267 177.186C44.0938 181.413 50.8687 183.78 57.3566 185.599C64.6344 187.64 72.1441 188.976 79.6421 189.85C99.4368 192.158 119.863 191.595 139.411 187.609C146.234 186.218 153.082 184.388 159.421 181.442C164.548 179.059 170.589 175.462 172.219 169.592C172.909 167.109 172.929 164.102 173.245 161.541C173.86 156.547 174.476 151.553 175.092 146.559C176.006 139.145 176.822 131.706 177.872 124.313C180 109.336 181.655 94.2686 183.49 79.2518C184.379 71.974 185.285 64.6742 186.185 57.39C186.81 52.3273 187.435 47.2646 188.06 42.202C188.262 40.5698 188.463 38.9377 188.665 37.3055C188.842 35.8674 188.73 35.8992 189.988 34.9753C197.04 29.7986 201.462 20.4109 199.559 11.6091ZM167.286 24.7674C171.495 26.1914 177.506 28.0533 180.229 31.9248C182.094 34.5769 178.334 36.7085 176.281 37.9049C168.773 42.2795 159.715 44.2203 151.29 45.8002C123.695 50.9754 94.5113 51.2409 66.6932 47.7751C56.0296 46.4466 45.1524 44.6529 35.0662 40.7862C32.2964 39.7244 29.4815 38.5009 27.0639 36.7462C26.0678 36.0233 24.3309 34.7785 24.2731 33.3734C24.1635 30.7107 29.1493 28.4568 30.9333 27.5725C35.5999 25.2593 40.6639 23.7513 45.7013 22.5039C57.5725 19.5643 69.8245 18.1395 82.0053 17.3399C96.0913 16.4153 110.255 16.4393 124.337 17.421C136.413 18.2629 148.567 19.7195 160.318 22.724C162.663 23.3235 164.992 23.9925 167.286 24.7674ZM173.822 90.2103C173.054 96.4061 172.285 102.602 171.517 108.798C171.074 112.37 170.631 115.941 170.188 119.513C170.111 120.127 170.028 120.74 169.959 121.354C169.684 123.827 168.02 125.244 166.039 126.614C159.326 131.257 150.61 133.193 142.76 134.786C143.115 128.413 143.47 122.04 143.825 115.668C144.053 111.58 144.281 107.492 144.508 103.404C144.569 102.315 144.421 100.946 144.704 99.8903C144.744 99.7437 144.646 99.3386 144.742 99.2168C145.118 98.7393 147.892 98.5705 148.533 98.4431C157.097 96.7402 166.129 94.5131 173.822 90.2103ZM131.944 180.555C123.608 181.961 115.136 182.545 106.692 182.709C106.692 176.719 106.692 170.729 106.692 164.738C106.692 160.62 106.692 156.502 106.692 152.384C106.692 151.027 106.692 149.67 106.692 148.314C106.692 148.036 106.52 147.012 106.692 146.768C106.916 146.451 109.526 146.706 110.075 146.69C111.33 146.652 112.584 146.605 113.838 146.548C116.032 146.448 118.228 146.336 120.419 146.173C124.933 145.838 129.46 145.407 133.942 144.77C133.277 156.698 132.611 168.627 131.944 180.555ZM71.958 158.387C71.7041 153.848 71.4502 149.309 71.1963 144.77C79.0955 145.891 87.0933 146.451 95.0632 146.69C95.6309 146.707 98.1718 146.471 98.449 146.854C98.5515 146.996 98.4157 147.469 98.449 147.639C98.6578 148.71 98.449 150.05 98.449 151.138C98.449 159.337 98.449 167.536 98.449 175.736C98.449 178.06 98.449 180.385 98.449 182.709C91.2322 182.569 84.0061 182.109 76.853 181.114C76.2073 181.025 73.5478 180.991 73.1973 180.51C73.0909 180.364 73.1909 179.883 73.1528 179.716C72.8889 178.564 73.0095 177.158 72.9436 175.981C72.6151 170.116 72.2865 164.252 71.958 158.387ZM57.9513 133.83C51.3366 132.25 43.8402 130.309 38.328 126.084C35.5969 123.99 35.4069 122.728 35.0274 119.704C34.0787 112.143 33.1299 104.582 32.1811 97.0207C31.8964 94.7519 31.6117 92.4831 31.327 90.2143C38.1517 94.0254 45.9128 96.1402 53.4915 97.7969C55.4774 98.231 57.573 98.4495 59.5274 98.9972C60.2187 99.1909 60.1722 99.0165 60.4068 99.3998C60.7518 99.9635 60.5328 101.655 60.5686 102.296C61.0334 110.609 61.4981 118.922 61.9628 127.235C62.1035 129.752 62.2442 132.269 62.3849 134.786C60.9013 134.486 59.4245 134.182 57.9513 133.83ZM83.5915 57.6217C88.571 57.9106 93.5578 58.0827 98.5451 58.1444C97.8511 63.9902 98.449 70.2499 98.449 76.1343C98.449 82.1162 98.449 88.098 98.449 94.0799C90.0216 93.9602 81.5811 93.5514 73.2068 92.5599C72.4534 92.4707 68.6735 92.4889 68.246 91.9176C68.1563 91.7976 68.2623 91.4636 68.213 91.3243C67.9043 90.4518 68.0872 89.0634 68.0359 88.1424C67.577 79.895 67.118 71.6476 66.6591 63.4002C66.5236 60.9646 66.388 58.5291 66.2525 56.0935C72.0052 56.802 77.8066 57.2773 83.5915 57.6217ZM123.168 137.587C117.687 138.068 112.193 138.326 106.692 138.416C106.692 132.278 106.692 126.141 106.692 120.003C106.692 115.868 106.692 111.733 106.692 107.598C106.692 106.281 106.692 104.964 106.692 103.647C106.692 102.378 106.467 102.461 107.945 102.407C117.468 102.055 126.952 101.648 136.413 100.416C135.779 111.815 135.145 123.214 134.511 134.614C134.495 134.898 134.614 136.025 134.42 136.246C133.843 136.905 130.44 136.807 129.611 136.908C127.467 137.171 125.319 137.394 123.168 137.587ZM87.0042 137.965C83.4324 137.736 79.8666 137.42 76.3117 137.001C75.0681 136.854 71.2604 136.95 70.7053 135.962C70.433 135.477 70.6059 134.178 70.5755 133.633C70.4949 132.187 70.4143 130.742 70.3337 129.296C69.9104 121.701 69.487 114.106 69.0636 106.511C68.9504 104.479 68.8371 102.447 68.7239 100.416C76.999 101.49 85.3426 102.065 93.6803 102.311C94.3608 102.331 98.0156 101.956 98.449 102.467C98.5323 102.565 98.4118 102.942 98.449 103.062C98.7197 103.935 98.449 105.346 98.449 106.255C98.449 114.531 98.449 122.807 98.449 131.083C98.449 133.527 98.449 135.971 98.449 138.415C94.63 138.353 90.8159 138.217 87.0042 137.965ZM121.547 57.6222C127.332 57.2783 133.132 56.8004 138.885 56.0935C138.544 62.2099 138.204 68.3263 137.864 74.4427C137.634 78.5635 137.405 82.6843 137.176 86.8051C137.103 88.1174 137.03 89.4297 136.957 90.742C136.881 92.1078 137.043 91.9103 135.429 92.1241C125.9 93.3868 116.299 93.9443 106.692 94.0799C106.692 88.098 106.692 82.1162 106.692 76.1343C106.692 70.2494 107.29 63.9905 106.596 58.1444C111.583 58.0827 116.568 57.9061 121.547 57.6222ZM32.8742 48.7782C40.4484 51.6015 48.3968 53.3403 56.3503 54.6698C58.0227 54.9494 57.8207 54.6019 57.9777 55.8975C58.1234 57.0985 58.1142 58.3419 58.1816 59.5495C58.6331 67.6346 59.0845 75.7196 59.5359 83.8047C59.662 86.0626 59.7881 88.3205 59.914 90.5784C52.0786 89.1184 44.0453 87.3188 36.8427 83.7747C34.1489 82.4492 30.2908 80.6033 29.7179 77.3137C28.3733 69.594 27.7973 61.656 26.8432 53.8778C26.5064 51.1321 26.1696 48.3864 25.8328 45.6407C28.0785 46.8704 30.4805 47.8822 32.8742 48.7782ZM179.313 45.6366C178.513 52.0529 177.713 58.4692 176.913 64.8854C176.469 68.4469 176.025 72.0084 175.581 75.5699C175.507 76.1608 175.468 76.7715 175.368 77.3574C174.875 80.2453 171.711 81.9494 169.3 83.2214C161.869 87.1428 153.414 89.053 145.224 90.5784C145.589 84.0579 145.955 77.5374 146.32 71.0169C146.549 66.9273 146.778 62.8376 147.007 58.748C147.059 57.8237 146.848 56.2863 147.194 55.4171C147.721 54.0924 151.508 54.1989 152.98 53.9181C161.889 52.2182 171.279 50.0275 179.313 45.6366ZM13.6369 13.3736C15.4596 4.89801 24.9259 8.95876 28.674 13.4016C29.2152 14.0431 31.9612 17.3672 31.5403 18.2451C31.3601 18.6209 29.553 19.1137 29.1401 19.302C28.4088 19.6355 27.6599 19.9513 26.9447 20.3188C23.7686 21.9507 20.4579 24.0581 18.2858 26.9659C14.9404 23.5436 12.595 18.2273 13.6369 13.3736ZM40.7135 165.692C39.4523 155.464 38.1911 145.235 36.9299 135.007C43.9857 138.979 52.0306 141.077 59.874 142.766C60.4717 142.895 62.5092 142.98 62.8669 143.45C62.9726 143.588 62.8723 144.017 62.9083 144.189C63.1338 145.267 63.0391 146.529 63.1006 147.626C63.5538 155.728 64.0071 163.83 64.4604 171.932C64.5909 174.264 64.7213 176.596 64.8518 178.928C58.4706 177.493 51.8212 175.649 46.2016 172.165C44.0656 170.841 40.7364 168.59 40.7135 165.692ZM164.396 166.203C164.396 168.91 160.892 171.068 158.934 172.247C153.279 175.655 146.666 177.497 140.288 178.931C140.623 172.935 140.958 166.938 141.294 160.942C141.522 156.861 141.75 152.78 141.978 148.699C142.052 147.384 142.125 146.068 142.199 144.753C142.266 143.552 142.033 143.697 142.995 143.235C144.837 142.349 147.571 142.291 149.57 141.801C151.591 141.305 153.607 140.752 155.604 140.163C159.907 138.896 164.298 137.216 168.219 135.003C166.945 145.403 165.67 155.803 164.396 166.203ZM189.053 24.2118C188.417 25.1889 187.683 26.1068 186.872 26.9416C184.137 23.3019 179.878 21.0504 175.843 19.2165C174.587 18.6454 173.338 18.7571 174.013 17.278C174.535 16.1325 175.177 15.0553 175.943 14.0581C177.263 12.3388 178.897 10.8373 180.778 9.76456C183.844 8.01655 188.108 7.41423 190.402 10.715C193.149 14.6697 191.397 20.5332 189.053 24.2118Z" fill="#CFCECE"/>
</g>
<g filter="url(#filter1_f_2593_938)">
<ellipse cx="102.637" cy="208.453" rx="70.6758" ry="9.55078" fill="#D9D9D9"/>
</g>
<defs>
<filter id="filter0_d_2593_938" x="0.125" y="0" width="204.97" height="201.396" filterUnits="userSpaceOnUse" color-interpolation-filters="sRGB">
<feFlood flood-opacity="0" result="BackgroundImageFix"/>
<feColorMatrix in="SourceAlpha" type="matrix" values="0 0 0 0 0 0 0 0 0 0 0 0 0 0 0 0 0 0 127 0" result="hardAlpha"/>
<feOffset dy="5.09375"/>
<feGaussianBlur stdDeviation="2.54688"/>
<feComposite in2="hardAlpha" operator="out"/>
<feColorMatrix type="matrix" values="0 0 0 0 0 0 0 0 0 0 0 0 0 0 0 0 0 0 0.25 0"/>
<feBlend mode="normal" in2="BackgroundImageFix" result="effect1_dropShadow_2593_938"/>
<feBlend mode="normal" in="SourceGraphic" in2="effect1_dropShadow_2593_938" result="shape"/>
</filter>
<filter id="filter1_f_2593_938" x="21.7734" y="188.715" width="161.727" height="39.4766" filterUnits="userSpaceOnUse" color-interpolation-filters="sRGB">
<feFlood flood-opacity="0" result="BackgroundImageFix"/>
<feBlend mode="normal" in="SourceGraphic" in2="BackgroundImageFix" result="shape"/>
<feGaussianBlur stdDeviation="5.09375" result="effect1_foregroundBlur_2593_938"/>
</filter>
</defs>
</svg>
