<?xml version="1.0" standalone="no"?>
<!DOCTYPE svg PUBLIC "-//W3C//DTD SVG 20010904//EN"
 "http://www.w3.org/TR/2001/REC-SVG-20010904/DTD/svg10.dtd">
<svg version="1.0" xmlns="http://www.w3.org/2000/svg"
 width="612.000000pt" height="612.000000pt" viewBox="0 0 612.000000 612.000000"
 preserveAspectRatio="xMidYMid meet">

<g transform="translate(0.000000,612.000000) scale(0.100000,-0.100000)"
fill="#fff" stroke="none">
<path d="M4077 5009 c-21 -12 -16 -1 -119 -284 -162 -449 -190 -531 -190 -553
-1 -33 35 -65 71 -65 41 0 55 14 80 81 194 531 270 756 265 778 -11 45 -66 67
-107 43z"/>
<path d="M2910 4723 c-39 -14 -94 -61 -113 -97 -19 -36 -21 -59 -22 -186 -1
-134 -4 -152 -33 -240 -56 -170 -157 -324 -322 -490 -228 -232 -371 -320 -970
-600 -190 -89 -239 -120 -313 -198 -64 -68 -127 -188 -146 -280 -26 -126 -2
-285 61 -405 68 -131 225 -253 374 -291 79 -20 219 -20 296 0 33 8 61 14 62
12 2 -2 108 -167 236 -368 249 -389 297 -450 372 -471 96 -26 205 16 263 101
27 41 30 52 30 125 l0 80 -104 215 c-56 118 -112 235 -123 260 -11 25 -27 57
-34 72 l-14 28 67 34 c103 52 143 103 143 182 0 19 -6 50 -14 69 l-15 35 57
16 c31 8 71 20 87 24 17 5 80 18 142 29 411 73 754 7 964 -186 97 -90 150
-108 241 -83 81 23 139 104 140 195 1 47 -18 92 -211 501 l-212 449 38 32 c21
18 41 32 45 33 3 0 20 28 37 62 95 189 -44 402 -251 385 -35 -3 -72 -8 -83
-11 -18 -6 -34 24 -150 271 -314 673 -301 650 -367 682 -42 20 -121 27 -158
14z m99 -150 c11 -10 78 -142 149 -293 71 -151 146 -311 167 -355 20 -44 48
-102 60 -130 13 -27 51 -108 85 -180 34 -71 109 -231 167 -355 58 -124 147
-313 198 -420 51 -107 104 -220 118 -250 14 -30 48 -104 76 -164 55 -117 59
-136 35 -160 -28 -29 -63 -19 -119 32 -116 106 -247 173 -431 219 -103 26
-122 28 -329 28 -186 0 -238 -4 -336 -22 -153 -30 -335 -83 -474 -138 -62 -25
-116 -45 -121 -45 -6 0 -19 21 -31 48 -11 26 -96 206 -188 400 -91 195 -165
356 -163 358 3 2 51 29 109 60 222 121 393 249 559 420 199 206 326 424 366
632 8 41 14 125 14 187 0 106 1 115 22 129 29 20 41 20 67 -1z m747 -968 c34
-22 57 -79 50 -121 -8 -40 -43 -86 -63 -82 -22 5 -115 210 -100 221 18 12 84
1 113 -18z m-1893 -792 c69 -148 155 -330 191 -406 l66 -138 -73 -33 c-39 -18
-130 -61 -202 -94 -149 -70 -213 -87 -305 -79 -219 18 -386 184 -415 412 -8
64 15 176 51 246 33 66 123 156 189 189 103 50 360 170 366 170 3 0 63 -120
132 -267z m604 -580 c6 -16 8 -34 5 -42 -4 -13 -97 -61 -118 -61 -11 0 -34 42
-34 64 0 10 107 64 132 65 3 1 10 -11 15 -26z m-269 -130 c6 -16 79 -172 162
-348 193 -406 190 -401 190 -420 0 -34 -30 -75 -63 -83 -68 -19 -77 -8 -279
304 -254 393 -276 428 -282 445 -4 10 29 30 117 71 67 32 127 58 134 58 6 0
16 -12 21 -27z"/>
<path d="M4810 4114 c-96 -46 -265 -125 -374 -176 -110 -51 -208 -102 -218
-112 -38 -41 -4 -116 51 -116 27 0 767 345 794 370 10 9 19 32 19 50 1 40 -30
71 -71 69 -14 -1 -105 -39 -201 -85z"/>
<path d="M4273 3259 c-47 -17 -58 -86 -18 -117 14 -11 58 -32 98 -45 40 -14
173 -62 297 -107 436 -159 431 -157 473 -122 23 20 22 74 -2 96 -15 13 -738
281 -806 298 -12 3 -30 1 -42 -3z"/>
</g>
</svg>
