<svg width="28" height="28" viewBox="0 0 28 28" fill="none" xmlns="http://www.w3.org/2000/svg">
<path d="M12.8686 9.95221C13.2103 9.61051 13.2103 9.05649 12.8686 8.71478C12.5269 8.37307 11.9729 8.37307 11.6312 8.71478L6.96453 13.3814C6.79368 13.5523 6.70825 13.7762 6.70825 14.0002C6.70825 14.1188 6.73186 14.2319 6.77465 14.3351C6.81735 14.4383 6.88064 14.535 6.96453 14.6189L11.6312 19.2855C11.9729 19.6273 12.5269 19.6273 12.8686 19.2855C13.2103 18.9438 13.2103 18.3898 12.8686 18.0481L9.69569 14.8752H20.9999C21.4832 14.8752 21.8749 14.4834 21.8749 14.0002C21.8749 13.5169 21.4832 13.1252 20.9999 13.1252H9.69569L12.8686 9.95221Z" fill="black"/>
</svg>
