<svg width="422" height="173" viewBox="0 0 422 173" fill="none" xmlns="http://www.w3.org/2000/svg">
<rect x="41.5" y="15.5" width="380" height="138" stroke="#ECECEC"/>
<path d="M41 42H422" stroke="#ECECEC"/>
<path d="M41 15H362" stroke="#ECECEC"/>
<path d="M41 69H422" stroke="#ECECEC"/>
<path d="M41 96H422" stroke="#ECECEC"/>
<path d="M41 123H422" stroke="#ECECEC"/>
<path d="M95 15L95 154" stroke="#ECECEC"/>
<path d="M148 15L148 154" stroke="#ECECEC"/>
<path d="M201 15L201 154" stroke="#ECECEC"/>
<path d="M254 15L254 154" stroke="#ECECEC"/>
<path d="M307 15L307 154" stroke="#ECECEC"/>
<path d="M360 15L360 154" stroke="#ECECEC"/>
<path d="M57.0515 162.03V167.18C57.0515 167.753 56.8748 168.213 56.5215 168.56C56.1682 168.9 55.7015 169.07 55.1215 169.07C54.5348 169.07 54.0648 168.897 53.7115 168.55C53.3582 168.197 53.1815 167.717 53.1815 167.11H54.0915C54.0982 167.45 54.1848 167.727 54.3515 167.94C54.5248 168.153 54.7815 168.26 55.1215 168.26C55.4615 168.26 55.7148 168.16 55.8815 167.96C56.0482 167.753 56.1315 167.493 56.1315 167.18V162.03H57.0515ZM58.5042 166.24C58.5042 165.68 58.6176 165.19 58.8442 164.77C59.0709 164.343 59.3809 164.013 59.7742 163.78C60.1742 163.547 60.6176 163.43 61.1042 163.43C61.5842 163.43 62.0009 163.533 62.3542 163.74C62.7076 163.947 62.9709 164.207 63.1442 164.52V163.52H64.0642V169H63.1442V167.98C62.9642 168.3 62.6942 168.567 62.3342 168.78C61.9809 168.987 61.5676 169.09 61.0942 169.09C60.6076 169.09 60.1676 168.97 59.7742 168.73C59.3809 168.49 59.0709 168.153 58.8442 167.72C58.6176 167.287 58.5042 166.793 58.5042 166.24ZM63.1442 166.25C63.1442 165.837 63.0609 165.477 62.8942 165.17C62.7276 164.863 62.5009 164.63 62.2142 164.47C61.9342 164.303 61.6242 164.22 61.2842 164.22C60.9442 164.22 60.6342 164.3 60.3542 164.46C60.0742 164.62 59.8509 164.853 59.6842 165.16C59.5176 165.467 59.4342 165.827 59.4342 166.24C59.4342 166.66 59.5176 167.027 59.6842 167.34C59.8509 167.647 60.0742 167.883 60.3542 168.05C60.6342 168.21 60.9442 168.29 61.2842 168.29C61.6242 168.29 61.9342 168.21 62.2142 168.05C62.5009 167.883 62.7276 167.647 62.8942 167.34C63.0609 167.027 63.1442 166.663 63.1442 166.25ZM68.272 163.42C68.9387 163.42 69.4787 163.623 69.892 164.03C70.3054 164.43 70.512 165.01 70.512 165.77V169H69.612V165.9C69.612 165.353 69.4754 164.937 69.202 164.65C68.9287 164.357 68.5554 164.21 68.082 164.21C67.602 164.21 67.2187 164.36 66.932 164.66C66.652 164.96 66.512 165.397 66.512 165.97V169H65.602V163.52H66.512V164.3C66.692 164.02 66.9354 163.803 67.242 163.65C67.5554 163.497 67.8987 163.42 68.272 163.42Z" fill="#4F4F4F"/>
<path d="M119.711 162.03V162.77H116.681V165.12H119.141V165.86H116.681V169H115.771V162.03H119.711ZM125.81 166.05C125.81 166.223 125.8 166.407 125.78 166.6H121.4C121.433 167.14 121.617 167.563 121.95 167.87C122.29 168.17 122.7 168.32 123.18 168.32C123.573 168.32 123.9 168.23 124.16 168.05C124.427 167.863 124.613 167.617 124.72 167.31H125.7C125.553 167.837 125.26 168.267 124.82 168.6C124.38 168.927 123.833 169.09 123.18 169.09C122.66 169.09 122.193 168.973 121.78 168.74C121.373 168.507 121.053 168.177 120.82 167.75C120.587 167.317 120.47 166.817 120.47 166.25C120.47 165.683 120.583 165.187 120.81 164.76C121.037 164.333 121.353 164.007 121.76 163.78C122.173 163.547 122.647 163.43 123.18 163.43C123.7 163.43 124.16 163.543 124.56 163.77C124.96 163.997 125.267 164.31 125.48 164.71C125.7 165.103 125.81 165.55 125.81 166.05ZM124.87 165.86C124.87 165.513 124.793 165.217 124.64 164.97C124.487 164.717 124.277 164.527 124.01 164.4C123.75 164.267 123.46 164.2 123.14 164.2C122.68 164.2 122.287 164.347 121.96 164.64C121.64 164.933 121.457 165.34 121.41 165.86H124.87ZM127.921 164.54C128.108 164.213 128.381 163.947 128.741 163.74C129.101 163.533 129.511 163.43 129.971 163.43C130.465 163.43 130.908 163.547 131.301 163.78C131.695 164.013 132.005 164.343 132.231 164.77C132.458 165.19 132.571 165.68 132.571 166.24C132.571 166.793 132.458 167.287 132.231 167.72C132.005 168.153 131.691 168.49 131.291 168.73C130.898 168.97 130.458 169.09 129.971 169.09C129.498 169.09 129.081 168.987 128.721 168.78C128.368 168.573 128.101 168.31 127.921 167.99V169H127.011V161.6H127.921V164.54ZM131.641 166.24C131.641 165.827 131.558 165.467 131.391 165.16C131.225 164.853 130.998 164.62 130.711 164.46C130.431 164.3 130.121 164.22 129.781 164.22C129.448 164.22 129.138 164.303 128.851 164.47C128.571 164.63 128.345 164.867 128.171 165.18C128.005 165.487 127.921 165.843 127.921 166.25C127.921 166.663 128.005 167.027 128.171 167.34C128.345 167.647 128.571 167.883 128.851 168.05C129.138 168.21 129.448 168.29 129.781 168.29C130.121 168.29 130.431 168.21 130.711 168.05C130.998 167.883 131.225 167.647 131.391 167.34C131.558 167.027 131.641 166.66 131.641 166.24Z" fill="#4F4F4F"/>
<path d="M175.289 162.08V169H174.379V163.84L172.079 169H171.439L169.129 163.83V169H168.219V162.08H169.199L171.759 167.8L174.319 162.08H175.289ZM176.493 166.24C176.493 165.68 176.606 165.19 176.833 164.77C177.059 164.343 177.369 164.013 177.763 163.78C178.163 163.547 178.606 163.43 179.093 163.43C179.573 163.43 179.989 163.533 180.343 163.74C180.696 163.947 180.959 164.207 181.133 164.52V163.52H182.053V169H181.133V167.98C180.953 168.3 180.683 168.567 180.323 168.78C179.969 168.987 179.556 169.09 179.083 169.09C178.596 169.09 178.156 168.97 177.763 168.73C177.369 168.49 177.059 168.153 176.833 167.72C176.606 167.287 176.493 166.793 176.493 166.24ZM181.133 166.25C181.133 165.837 181.049 165.477 180.883 165.17C180.716 164.863 180.489 164.63 180.203 164.47C179.923 164.303 179.613 164.22 179.273 164.22C178.933 164.22 178.623 164.3 178.343 164.46C178.063 164.62 177.839 164.853 177.673 165.16C177.506 165.467 177.423 165.827 177.423 166.24C177.423 166.66 177.506 167.027 177.673 167.34C177.839 167.647 178.063 167.883 178.343 168.05C178.623 168.21 178.933 168.29 179.273 168.29C179.613 168.29 179.923 168.21 180.203 168.05C180.489 167.883 180.716 167.647 180.883 167.34C181.049 167.027 181.133 166.663 181.133 166.25ZM184.5 164.41C184.66 164.097 184.887 163.853 185.18 163.68C185.48 163.507 185.844 163.42 186.27 163.42V164.36H186.03C185.01 164.36 184.5 164.913 184.5 166.02V169H183.59V163.52H184.5V164.41Z" fill="#4F4F4F"/>
<path d="M225.277 167.45H222.237L221.677 169H220.717L223.237 162.07H224.287L226.797 169H225.837L225.277 167.45ZM225.017 166.71L223.757 163.19L222.497 166.71H225.017ZM228.805 164.53C228.985 164.217 229.252 163.957 229.605 163.75C229.965 163.537 230.382 163.43 230.855 163.43C231.342 163.43 231.782 163.547 232.175 163.78C232.575 164.013 232.888 164.343 233.115 164.77C233.342 165.19 233.455 165.68 233.455 166.24C233.455 166.793 233.342 167.287 233.115 167.72C232.888 168.153 232.575 168.49 232.175 168.73C231.782 168.97 231.342 169.09 230.855 169.09C230.388 169.09 229.975 168.987 229.615 168.78C229.262 168.567 228.992 168.303 228.805 167.99V171.6H227.895V163.52H228.805V164.53ZM232.525 166.24C232.525 165.827 232.442 165.467 232.275 165.16C232.108 164.853 231.882 164.62 231.595 164.46C231.315 164.3 231.005 164.22 230.665 164.22C230.332 164.22 230.022 164.303 229.735 164.47C229.455 164.63 229.228 164.867 229.055 165.18C228.888 165.487 228.805 165.843 228.805 166.25C228.805 166.663 228.888 167.027 229.055 167.34C229.228 167.647 229.455 167.883 229.735 168.05C230.022 168.21 230.332 168.29 230.665 168.29C231.005 168.29 231.315 168.21 231.595 168.05C231.882 167.883 232.108 167.647 232.275 167.34C232.442 167.027 232.525 166.66 232.525 166.24ZM235.563 164.41C235.723 164.097 235.949 163.853 236.243 163.68C236.543 163.507 236.906 163.42 237.333 163.42V164.36H237.093C236.073 164.36 235.563 164.913 235.563 166.02V169H234.653V163.52H235.563V164.41Z" fill="#4F4F4F"/>
<path d="M278.337 162.08V169H277.427V163.84L275.127 169H274.487L272.177 163.83V169H271.267V162.08H272.247L274.807 167.8L277.367 162.08H278.337ZM279.54 166.24C279.54 165.68 279.654 165.19 279.88 164.77C280.107 164.343 280.417 164.013 280.81 163.78C281.21 163.547 281.654 163.43 282.14 163.43C282.62 163.43 283.037 163.533 283.39 163.74C283.744 163.947 284.007 164.207 284.18 164.52V163.52H285.1V169H284.18V167.98C284 168.3 283.73 168.567 283.37 168.78C283.017 168.987 282.604 169.09 282.13 169.09C281.644 169.09 281.204 168.97 280.81 168.73C280.417 168.49 280.107 168.153 279.88 167.72C279.654 167.287 279.54 166.793 279.54 166.24ZM284.18 166.25C284.18 165.837 284.097 165.477 283.93 165.17C283.764 164.863 283.537 164.63 283.25 164.47C282.97 164.303 282.66 164.22 282.32 164.22C281.98 164.22 281.67 164.3 281.39 164.46C281.11 164.62 280.887 164.853 280.72 165.16C280.554 165.467 280.47 165.827 280.47 166.24C280.47 166.66 280.554 167.027 280.72 167.34C280.887 167.647 281.11 167.883 281.39 168.05C281.67 168.21 281.98 168.29 282.32 168.29C282.66 168.29 282.97 168.21 283.25 168.05C283.537 167.883 283.764 167.647 283.93 167.34C284.097 167.027 284.18 166.663 284.18 166.25ZM291.358 163.52L288.058 171.58H287.118L288.198 168.94L285.988 163.52H286.998L288.718 167.96L290.418 163.52H291.358Z" fill="#4F4F4F"/>
<path d="M330.232 162.03V167.18C330.232 167.753 330.055 168.213 329.702 168.56C329.349 168.9 328.882 169.07 328.302 169.07C327.715 169.07 327.245 168.897 326.892 168.55C326.539 168.197 326.362 167.717 326.362 167.11H327.272C327.279 167.45 327.365 167.727 327.532 167.94C327.705 168.153 327.962 168.26 328.302 168.26C328.642 168.26 328.895 168.16 329.062 167.96C329.229 167.753 329.312 167.493 329.312 167.18V162.03H330.232ZM336.885 163.52V169H335.975V168.19C335.802 168.47 335.558 168.69 335.245 168.85C334.938 169.003 334.598 169.08 334.225 169.08C333.798 169.08 333.415 168.993 333.075 168.82C332.735 168.64 332.465 168.373 332.265 168.02C332.072 167.667 331.975 167.237 331.975 166.73V163.52H332.875V166.61C332.875 167.15 333.012 167.567 333.285 167.86C333.558 168.147 333.932 168.29 334.405 168.29C334.892 168.29 335.275 168.14 335.555 167.84C335.835 167.54 335.975 167.103 335.975 166.53V163.52H336.885ZM341.091 163.42C341.758 163.42 342.298 163.623 342.711 164.03C343.125 164.43 343.331 165.01 343.331 165.77V169H342.431V165.9C342.431 165.353 342.295 164.937 342.021 164.65C341.748 164.357 341.375 164.21 340.901 164.21C340.421 164.21 340.038 164.36 339.751 164.66C339.471 164.96 339.331 165.397 339.331 165.97V169H338.421V163.52H339.331V164.3C339.511 164.02 339.755 163.803 340.061 163.65C340.375 163.497 340.718 163.42 341.091 163.42Z" fill="#4F4F4F"/>
<path d="M384.2 162.03V167.18C384.2 167.753 384.023 168.213 383.67 168.56C383.317 168.9 382.85 169.07 382.27 169.07C381.683 169.07 381.213 168.897 380.86 168.55C380.507 168.197 380.33 167.717 380.33 167.11H381.24C381.247 167.45 381.333 167.727 381.5 167.94C381.673 168.153 381.93 168.26 382.27 168.26C382.61 168.26 382.863 168.16 383.03 167.96C383.197 167.753 383.28 167.493 383.28 167.18V162.03H384.2ZM390.853 163.52V169H389.943V168.19C389.769 168.47 389.526 168.69 389.213 168.85C388.906 169.003 388.566 169.08 388.193 169.08C387.766 169.08 387.383 168.993 387.043 168.82C386.703 168.64 386.433 168.373 386.233 168.02C386.039 167.667 385.943 167.237 385.943 166.73V163.52H386.843V166.61C386.843 167.15 386.979 167.567 387.253 167.86C387.526 168.147 387.899 168.29 388.373 168.29C388.859 168.29 389.243 168.14 389.523 167.84C389.803 167.54 389.943 167.103 389.943 166.53V163.52H390.853ZM393.299 161.6V169H392.389V161.6H393.299Z" fill="#4F4F4F"/>
<rect x="49" y="55" width="37" height="99" fill="#165BAA"/>
<rect x="49" y="30" width="37" height="25" fill="#A155B9"/>
<rect x="103" y="74" width="37" height="24" fill="#A155B9"/>
<rect x="156" y="43" width="37" height="80" fill="#A155B9"/>
<rect x="209" y="72" width="37" height="22" fill="#A155B9"/>
<rect x="262" y="74" width="37" height="55" fill="#A155B9"/>
<rect x="315" y="27" width="37" height="47" fill="#A155B9"/>
<rect x="368" y="27" width="37" height="28" fill="#A155B9"/>
<rect x="103" y="98" width="37" height="56" fill="#165BAA"/>
<rect x="156" y="123" width="37" height="31" fill="#165BAA"/>
<rect x="209" y="92" width="37" height="62" fill="#165BAA"/>
<rect x="262" y="129" width="37" height="25" fill="#165BAA"/>
<rect x="315" y="74" width="37" height="80" fill="#165BAA"/>
<rect x="368" y="55" width="37" height="99" fill="#165BAA"/>
<path d="M21.2088 147.572C21.2088 146.196 21.4328 145.124 21.8808 144.356C22.3288 143.58 23.1128 143.192 24.2328 143.192C25.3448 143.192 26.1248 143.58 26.5728 144.356C27.0208 145.124 27.2448 146.196 27.2448 147.572C27.2448 148.972 27.0208 150.06 26.5728 150.836C26.1248 151.612 25.3448 152 24.2328 152C23.1128 152 22.3288 151.612 21.8808 150.836C21.4328 150.06 21.2088 148.972 21.2088 147.572ZM26.1648 147.572C26.1648 146.876 26.1168 146.288 26.0208 145.808C25.9328 145.32 25.7448 144.928 25.4568 144.632C25.1768 144.336 24.7688 144.188 24.2328 144.188C23.6888 144.188 23.2728 144.336 22.9848 144.632C22.7048 144.928 22.5168 145.32 22.4208 145.808C22.3328 146.288 22.2888 146.876 22.2888 147.572C22.2888 148.292 22.3328 148.896 22.4208 149.384C22.5168 149.872 22.7048 150.264 22.9848 150.56C23.2728 150.856 23.6888 151.004 24.2328 151.004C24.7688 151.004 25.1768 150.856 25.4568 150.56C25.7448 150.264 25.9328 149.872 26.0208 149.384C26.1168 148.896 26.1648 148.292 26.1648 147.572Z" fill="#4F4F4F"/>
<path d="M14.1745 120.124C15.1905 119.308 15.9865 118.64 16.5625 118.12C17.1385 117.592 17.6225 117.044 18.0145 116.476C18.4145 115.9 18.6145 115.336 18.6145 114.784C18.6145 114.264 18.4865 113.856 18.2305 113.56C17.9825 113.256 17.5785 113.104 17.0185 113.104C16.4745 113.104 16.0505 113.276 15.7465 113.62C15.4505 113.956 15.2905 114.408 15.2665 114.976H14.2105C14.2425 114.08 14.5145 113.388 15.0265 112.9C15.5385 112.412 16.1985 112.168 17.0065 112.168C17.8305 112.168 18.4825 112.396 18.9625 112.852C19.4505 113.308 19.6945 113.936 19.6945 114.736C19.6945 115.4 19.4945 116.048 19.0945 116.68C18.7025 117.304 18.2545 117.856 17.7505 118.336C17.2465 118.808 16.6025 119.36 15.8185 119.992H19.9465V120.904H14.1745V120.124ZM21.2088 116.572C21.2088 115.196 21.4328 114.124 21.8808 113.356C22.3288 112.58 23.1128 112.192 24.2328 112.192C25.3448 112.192 26.1248 112.58 26.5728 113.356C27.0208 114.124 27.2448 115.196 27.2448 116.572C27.2448 117.972 27.0208 119.06 26.5728 119.836C26.1248 120.612 25.3448 121 24.2328 121C23.1128 121 22.3288 120.612 21.8808 119.836C21.4328 119.06 21.2088 117.972 21.2088 116.572ZM26.1648 116.572C26.1648 115.876 26.1168 115.288 26.0208 114.808C25.9328 114.32 25.7448 113.928 25.4568 113.632C25.1768 113.336 24.7688 113.188 24.2328 113.188C23.6888 113.188 23.2728 113.336 22.9848 113.632C22.7048 113.928 22.5168 114.32 22.4208 114.808C22.3328 115.288 22.2888 115.876 22.2888 116.572C22.2888 117.292 22.3328 117.896 22.4208 118.384C22.5168 118.872 22.7048 119.264 22.9848 119.56C23.2728 119.856 23.6888 120.004 24.2328 120.004C24.7688 120.004 25.1768 119.856 25.4568 119.56C25.7448 119.264 25.9328 118.872 26.0208 118.384C26.1168 117.896 26.1648 117.292 26.1648 116.572Z" fill="#4F4F4F"/>
<path d="M13.398 92.068V91.24L17.61 85.408H18.918V91.12H20.118V92.068H18.918V94H17.838V92.068H13.398ZM17.886 86.548L14.658 91.12H17.886V86.548ZM21.2088 89.572C21.2088 88.196 21.4328 87.124 21.8808 86.356C22.3288 85.58 23.1128 85.192 24.2328 85.192C25.3448 85.192 26.1248 85.58 26.5728 86.356C27.0208 87.124 27.2448 88.196 27.2448 89.572C27.2448 90.972 27.0208 92.06 26.5728 92.836C26.1248 93.612 25.3448 94 24.2328 94C23.1128 94 22.3288 93.612 21.8808 92.836C21.4328 92.06 21.2088 90.972 21.2088 89.572ZM26.1648 89.572C26.1648 88.876 26.1168 88.288 26.0208 87.808C25.9328 87.32 25.7448 86.928 25.4568 86.632C25.1768 86.336 24.7688 86.188 24.2328 86.188C23.6888 86.188 23.2728 86.336 22.9848 86.632C22.7048 86.928 22.5168 87.32 22.4208 87.808C22.3328 88.288 22.2888 88.876 22.2888 89.572C22.2888 90.292 22.3328 90.896 22.4208 91.384C22.5168 91.872 22.7048 92.264 22.9848 92.56C23.2728 92.856 23.6888 93.004 24.2328 93.004C24.7688 93.004 25.1768 92.856 25.4568 92.56C25.7448 92.264 25.9328 91.872 26.0208 91.384C26.1168 90.896 26.1648 90.292 26.1648 89.572Z" fill="#4F4F4F"/>
<path d="M18.4277 61.388C18.2517 60.5 17.7037 60.056 16.7837 60.056C16.0717 60.056 15.5397 60.332 15.1877 60.884C14.8357 61.428 14.6637 62.328 14.6717 63.584C14.8557 63.168 15.1597 62.844 15.5837 62.612C16.0157 62.372 16.4957 62.252 17.0237 62.252C17.8477 62.252 18.5037 62.508 18.9917 63.02C19.4877 63.532 19.7357 64.24 19.7357 65.144C19.7357 65.688 19.6277 66.176 19.4117 66.608C19.2037 67.04 18.8837 67.384 18.4517 67.64C18.0277 67.896 17.5117 68.024 16.9037 68.024C16.0797 68.024 15.4357 67.84 14.9717 67.472C14.5077 67.104 14.1837 66.596 13.9997 65.948C13.8157 65.3 13.7237 64.5 13.7237 63.548C13.7237 60.612 14.7477 59.144 16.7957 59.144C17.5797 59.144 18.1957 59.356 18.6437 59.78C19.0917 60.204 19.3557 60.74 19.4357 61.388H18.4277ZM16.7957 63.176C16.4517 63.176 16.1277 63.248 15.8237 63.392C15.5197 63.528 15.2717 63.74 15.0797 64.028C14.8957 64.308 14.8037 64.652 14.8037 65.06C14.8037 65.668 14.9797 66.164 15.3317 66.548C15.6837 66.924 16.1877 67.112 16.8437 67.112C17.4037 67.112 17.8477 66.94 18.1757 66.596C18.5117 66.244 18.6797 65.772 18.6797 65.18C18.6797 64.556 18.5197 64.068 18.1997 63.716C17.8797 63.356 17.4117 63.176 16.7957 63.176ZM21.2088 63.572C21.2088 62.196 21.4328 61.124 21.8808 60.356C22.3288 59.58 23.1128 59.192 24.2328 59.192C25.3448 59.192 26.1248 59.58 26.5728 60.356C27.0208 61.124 27.2448 62.196 27.2448 63.572C27.2448 64.972 27.0208 66.06 26.5728 66.836C26.1248 67.612 25.3448 68 24.2328 68C23.1128 68 22.3288 67.612 21.8808 66.836C21.4328 66.06 21.2088 64.972 21.2088 63.572ZM26.1648 63.572C26.1648 62.876 26.1168 62.288 26.0208 61.808C25.9328 61.32 25.7448 60.928 25.4568 60.632C25.1768 60.336 24.7688 60.188 24.2328 60.188C23.6888 60.188 23.2728 60.336 22.9848 60.632C22.7048 60.928 22.5168 61.32 22.4208 61.808C22.3328 62.288 22.2888 62.876 22.2888 63.572C22.2888 64.292 22.3328 64.896 22.4208 65.384C22.5168 65.872 22.7048 66.264 22.9848 66.56C23.2728 66.856 23.6888 67.004 24.2328 67.004C24.7688 67.004 25.1768 66.856 25.4568 66.56C25.7448 66.264 25.9328 65.872 26.0208 65.384C26.1168 64.896 26.1648 64.292 26.1648 63.572Z" fill="#4F4F4F"/>
<path d="M15.2225 35.488C14.7745 35.312 14.4305 35.056 14.1905 34.72C13.9505 34.384 13.8305 33.976 13.8305 33.496C13.8305 33.064 13.9385 32.676 14.1545 32.332C14.3705 31.98 14.6905 31.704 15.1145 31.504C15.5465 31.296 16.0665 31.192 16.6745 31.192C17.2825 31.192 17.7985 31.296 18.2225 31.504C18.6545 31.704 18.9785 31.98 19.1945 32.332C19.4185 32.676 19.5305 33.064 19.5305 33.496C19.5305 33.96 19.4065 34.368 19.1585 34.72C18.9105 35.064 18.5705 35.32 18.1385 35.488C18.6345 35.64 19.0265 35.908 19.3145 36.292C19.6105 36.668 19.7585 37.124 19.7585 37.66C19.7585 38.18 19.6305 38.636 19.3745 39.028C19.1185 39.412 18.7545 39.712 18.2825 39.928C17.8185 40.136 17.2825 40.24 16.6745 40.24C16.0665 40.24 15.5305 40.136 15.0665 39.928C14.6105 39.712 14.2545 39.412 13.9985 39.028C13.7425 38.636 13.6145 38.18 13.6145 37.66C13.6145 37.124 13.7585 36.664 14.0465 36.28C14.3345 35.896 14.7265 35.632 15.2225 35.488ZM18.4745 33.628C18.4745 33.14 18.3145 32.764 17.9945 32.5C17.6745 32.236 17.2345 32.104 16.6745 32.104C16.1225 32.104 15.6865 32.236 15.3665 32.5C15.0465 32.764 14.8865 33.144 14.8865 33.64C14.8865 34.088 15.0505 34.448 15.3785 34.72C15.7145 34.992 16.1465 35.128 16.6745 35.128C17.2105 35.128 17.6425 34.992 17.9705 34.72C18.3065 34.44 18.4745 34.076 18.4745 33.628ZM16.6745 35.968C16.0825 35.968 15.5985 36.108 15.2225 36.388C14.8465 36.66 14.6585 37.072 14.6585 37.624C14.6585 38.136 14.8385 38.548 15.1985 38.86C15.5665 39.172 16.0585 39.328 16.6745 39.328C17.2905 39.328 17.7785 39.172 18.1385 38.86C18.4985 38.548 18.6785 38.136 18.6785 37.624C18.6785 37.088 18.4945 36.68 18.1265 36.4C17.7585 36.112 17.2745 35.968 16.6745 35.968ZM21.2088 35.572C21.2088 34.196 21.4328 33.124 21.8808 32.356C22.3288 31.58 23.1128 31.192 24.2328 31.192C25.3448 31.192 26.1248 31.58 26.5728 32.356C27.0208 33.124 27.2448 34.196 27.2448 35.572C27.2448 36.972 27.0208 38.06 26.5728 38.836C26.1248 39.612 25.3448 40 24.2328 40C23.1128 40 22.3288 39.612 21.8808 38.836C21.4328 38.06 21.2088 36.972 21.2088 35.572ZM26.1648 35.572C26.1648 34.876 26.1168 34.288 26.0208 33.808C25.9328 33.32 25.7448 32.928 25.4568 32.632C25.1768 32.336 24.7688 32.188 24.2328 32.188C23.6888 32.188 23.2728 32.336 22.9848 32.632C22.7048 32.928 22.5168 33.32 22.4208 33.808C22.3328 34.288 22.2888 34.876 22.2888 35.572C22.2888 36.292 22.3328 36.896 22.4208 37.384C22.5168 37.872 22.7048 38.264 22.9848 38.56C23.2728 38.856 23.6888 39.004 24.2328 39.004C24.7688 39.004 25.1768 38.856 25.4568 38.56C25.7448 38.264 25.9328 37.872 26.0208 37.384C26.1168 36.896 26.1648 36.292 26.1648 35.572Z" fill="#4F4F4F"/>
<path d="M9.54194 5.32V4.324H11.7979V13H10.6939V5.32H9.54194ZM13.6737 8.572C13.6737 7.196 13.8977 6.124 14.3457 5.356C14.7937 4.58 15.5777 4.192 16.6977 4.192C17.8097 4.192 18.5897 4.58 19.0377 5.356C19.4857 6.124 19.7097 7.196 19.7097 8.572C19.7097 9.972 19.4857 11.06 19.0377 11.836C18.5897 12.612 17.8097 13 16.6977 13C15.5777 13 14.7937 12.612 14.3457 11.836C13.8977 11.06 13.6737 9.972 13.6737 8.572ZM18.6297 8.572C18.6297 7.876 18.5817 7.288 18.4857 6.808C18.3977 6.32 18.2097 5.928 17.9217 5.632C17.6417 5.336 17.2337 5.188 16.6977 5.188C16.1537 5.188 15.7377 5.336 15.4497 5.632C15.1697 5.928 14.9817 6.32 14.8857 6.808C14.7977 7.288 14.7537 7.876 14.7537 8.572C14.7537 9.292 14.7977 9.896 14.8857 10.384C14.9817 10.872 15.1697 11.264 15.4497 11.56C15.7377 11.856 16.1537 12.004 16.6977 12.004C17.2337 12.004 17.6417 11.856 17.9217 11.56C18.2097 11.264 18.3977 10.872 18.4857 10.384C18.5817 9.896 18.6297 9.292 18.6297 8.572ZM21.2088 8.572C21.2088 7.196 21.4328 6.124 21.8808 5.356C22.3288 4.58 23.1128 4.192 24.2328 4.192C25.3448 4.192 26.1248 4.58 26.5728 5.356C27.0208 6.124 27.2448 7.196 27.2448 8.572C27.2448 9.972 27.0208 11.06 26.5728 11.836C26.1248 12.612 25.3448 13 24.2328 13C23.1128 13 22.3288 12.612 21.8808 11.836C21.4328 11.06 21.2088 9.972 21.2088 8.572ZM26.1648 8.572C26.1648 7.876 26.1168 7.288 26.0208 6.808C25.9328 6.32 25.7448 5.928 25.4568 5.632C25.1768 5.336 24.7688 5.188 24.2328 5.188C23.6888 5.188 23.2728 5.336 22.9848 5.632C22.7048 5.928 22.5168 6.32 22.4208 6.808C22.3328 7.288 22.2888 7.876 22.2888 8.572C22.2888 9.292 22.3328 9.896 22.4208 10.384C22.5168 10.872 22.7048 11.264 22.9848 11.56C23.2728 11.856 23.6888 12.004 24.2328 12.004C24.7688 12.004 25.1768 11.856 25.4568 11.56C25.7448 11.264 25.9328 10.872 26.0208 10.384C26.1168 9.896 26.1648 9.292 26.1648 8.572Z" fill="#4F4F4F"/>
</svg>
