<svg width="38" height="40" viewBox="0 0 38 40" fill="none" xmlns="http://www.w3.org/2000/svg">
<path d="M18.0543 20.1242C23.1301 20.1242 27.2448 16.0669 27.2448 11.0621C27.2448 6.05723 23.1301 2 18.0543 2C12.9785 2 8.86377 6.05723 8.86377 11.0621C8.86377 16.0669 12.9785 20.1242 18.0543 20.1242Z" stroke="#2697FF" stroke-width="2.5095"/>
<path d="M25.4073 27.3733H36.4359M27.2454 38.2478H5.67702C5.1557 38.2479 4.64031 38.1387 4.16507 37.9274C3.68983 37.7161 3.2656 37.4075 2.92054 37.0222C2.57548 36.6369 2.31748 36.1836 2.16367 35.6925C2.00985 35.2013 1.96373 34.6835 2.02837 34.1735L2.74523 28.5115C2.91194 27.1961 3.56028 25.986 4.56833 25.1089C5.57638 24.2317 6.87469 23.7479 8.21912 23.7485H8.86429L27.2454 38.2478ZM30.9216 21.936V32.8105V21.936Z" stroke="#2697FF" stroke-width="2.5095" stroke-linecap="round" stroke-linejoin="round"/>
</svg>
