<svg width="48" height="48" viewBox="0 0 48 48" fill="none" xmlns="http://www.w3.org/2000/svg">
<path d="M28.35 3.225C28.35 2.775 27.975 2.475 27.6 2.475H23.175C22.575 0.975 21.15 0 19.5 0C17.25 0 15.525 1.8 15.525 3.975H27.6751C28.0501 3.975 28.35 3.675 28.35 3.225ZM22.575 7.725V5.475H16.275V7.125C16.275 8.775 17.625 10.125 19.275 10.125H20.175C21.525 10.125 22.575 9.075 22.575 7.725ZM35.175 15.975C35.325 15.975 35.55 16.05 35.7 16.125L36.675 16.95V14.25H33.75V16.95L34.725 16.125C34.8001 16.05 34.95 15.975 35.175 15.975ZM18.225 11.55L18.15 12.75H19.95L20.1 11.7H19.2C18.9 11.7 18.6 11.625 18.225 11.55ZM31.875 42.075C31.875 42.075 31.8 42.075 31.725 42.075H31.65L29.4 42.3C29.25 42.3 29.1 42.3 28.95 42.3C28.65 42.225 28.35 42.15 28.125 41.925C27.75 41.625 27.525 41.175 27.45 40.725L27.075 36.6C27 36.15 26.925 35.775 26.775 35.325C26.7001 35.175 26.625 35.025 26.5501 34.875L23.4 30L22.125 27.975H17.85C17.4 27.975 17.1 27.6 17.1 27.225C17.1 26.775 17.475 26.475 17.85 26.475H21.825V21.975H20.925C20.625 21.975 20.325 21.75 20.25 21.525C20.175 21.45 20.175 21.3 20.175 21.225C20.175 20.775 20.55 20.475 20.925 20.475H22.575C22.65 20.475 22.8 20.475 22.875 20.55L22.95 20.625C23.025 20.625 23.025 20.7 23.1 20.7L25.35 22.875C25.725 23.25 26.25 23.475 26.775 23.475H31.875C32.1 23.475 32.25 23.4 32.4 23.25C32.475 23.25 32.475 23.175 32.475 23.1C32.55 22.95 32.625 22.8 32.625 22.65C32.625 22.425 32.55 22.275 32.4 22.125C32.25 21.975 32.1 21.9 31.875 21.9H27.9C26.85 21.9 25.8001 21.45 25.0501 20.775L24.975 20.7C24.9 20.625 24.9 20.625 24.825 20.55C24.75 20.475 24.675 20.4 24.6 20.325L24.525 20.25C24.45 20.1 24.3751 20.025 24.3001 19.875L24.075 19.425L21.75 15C21.75 15 21.75 14.925 21.675 14.925C21.6 14.85 21.525 14.775 21.45 14.7C21.375 14.625 21.375 14.625 21.3 14.55C21.225 14.55 21.225 14.475 21.15 14.475C21.075 14.4 21 14.4 20.925 14.4C20.85 14.4 20.85 14.325 20.775 14.325C20.7 14.325 20.625 14.25 20.55 14.25C20.475 14.25 20.4 14.25 20.325 14.25H20.25H18.15C17.925 14.25 17.775 14.325 17.55 14.325C17.4 14.4 17.25 14.475 17.175 14.55C17.175 14.55 17.175 14.55 17.1 14.625C16.95 14.7 16.875 14.775 16.8 14.925C16.725 15 16.65 15.15 16.575 15.225C16.575 15.3 16.5 15.3 16.5 15.375C16.425 15.45 16.425 15.6 16.425 15.675V15.75L14.925 29.4L14.25 35.775C14.25 36.075 14.175 36.3 14.1 36.6C13.8 37.725 13.275 38.775 12.45 39.675L10.575 41.55C10.5 41.625 10.425 41.775 10.425 41.925C10.425 42.075 10.5 42.3 10.575 42.45L14.475 46.35C14.625 46.5 14.925 46.575 15.15 46.5C15.225 46.5 15.3 46.425 15.375 46.35C15.45 46.275 15.45 46.2 15.525 46.125C15.6 45.975 15.6 45.825 15.525 45.675C15.525 45.6 15.45 45.525 15.45 45.45L14.7 44.4L14.55 44.25C14.025 43.5 14.025 42.6 14.475 41.775C14.475 41.775 14.475 41.7 14.55 41.7L15.975 39.675C16.05 39.6 16.05 39.525 16.125 39.45C16.2 39.375 16.2 39.3 16.275 39.225C16.35 39.075 16.425 39 16.425 38.85C16.425 38.775 16.5 38.775 16.5 38.7C16.65 38.4 16.725 38.025 16.8 37.65L18 30.975C18 30.825 18.15 30.675 18.3 30.525C18.375 30.45 18.525 30.375 18.6 30.375C18.675 30.375 18.675 30.375 18.75 30.375H18.825C18.9 30.375 19.05 30.45 19.125 30.45C19.2 30.525 19.35 30.6 19.425 30.675L19.95 31.425L24.225 37.725C24.675 38.4 24.975 39.15 25.0501 39.975C25.0501 40.05 25.0501 40.125 25.0501 40.2L25.5 44.4C25.5 44.475 25.5 44.475 25.575 44.475C25.575 44.475 25.575 44.475 25.575 44.55L25.65 44.625C25.725 44.625 25.8 44.7 25.875 44.625L27.6751 43.95L31.875 42.375C31.95 42.375 31.9501 42.3 32.025 42.3C32.025 42.225 32.1 42.225 32.1 42.15C32.1 42 32.025 42 32.025 41.925C31.9501 42.075 31.95 42.075 31.875 42.075Z" fill="#010101"/>
<path d="M41.4 14.25H38.175V18.6C38.175 18.9 38.025 19.2 37.725 19.275C37.65 19.35 37.5 19.35 37.425 19.35C37.275 19.35 37.05 19.275 36.9 19.2L35.175 17.775L33.45 19.2C33.225 19.425 32.925 19.425 32.625 19.275C32.325 19.125 32.175 18.9 32.175 18.6V14.25H28.95C28.125 14.25 27.45 14.925 27.45 15.75V20.25C27.6 20.325 27.825 20.325 27.975 20.325H31.95C32.55 20.325 33.15 20.55 33.6 21C34.05 21.45 34.275 21.975 34.275 22.65C34.275 23.25 34.05 23.85 33.6 24.3C33.525 24.375 33.375 24.45 33.3 24.525C33.3 24.525 33.3 24.525 33.225 24.6C33.15 24.675 33.075 24.675 33 24.75C32.925 24.75 32.925 24.825 32.85 24.825C32.775 24.825 32.775 24.825 32.7 24.9C32.475 24.975 32.25 25.05 31.95 25.05H27.6V26.25C27.825 26.85 28.35 27.15 29.025 27.15H41.475C42.3 27.15 42.975 26.475 42.975 25.65V15.75C42.9 14.925 42.225 14.25 41.4 14.25ZM44.925 46.5H3.07495C2.62495 46.5 2.32495 46.875 2.32495 47.25C2.32495 47.625 2.69995 48 3.07495 48H45C45.45 48 45.75 47.625 45.75 47.25C45.75 46.875 45.375 46.5 44.925 46.5Z" fill="#010101"/>
</svg>
