<svg width="30" height="28" viewBox="0 0 30 28" fill="none" xmlns="http://www.w3.org/2000/svg">
<path d="M15.9875 24.4998L3.75 13.0781V15.4115C3.75 16.0298 4.0125 16.6248 4.4875 17.0565L14.225 26.1448C15.2 27.0548 16.7875 27.0548 17.7625 26.1448L25.525 18.8998C26.5 17.9898 26.5 16.5081 25.525 15.5981L15.9875 24.4998Z" fill="#D8D4E5"/>
<path d="M14.225 20.3117C14.7125 20.7667 15.35 21 15.9875 21C16.625 21 17.2625 20.7667 17.75 20.3117L25.5125 13.0667C26.4875 12.1567 26.4875 10.675 25.5125 9.765L15.775 0.676667C15.3125 0.245 14.675 0 14.0125 0H6.25C4.875 0 3.75 1.05 3.75 2.33333V9.57833C3.75 10.1967 4.0125 10.7917 4.4875 11.2233L14.225 20.3117ZM6.25 2.33333H14.0125L23.75 11.4217L15.9875 18.6667L6.25 9.57833V2.33333Z" fill="#D8D4E5"/>
<path d="M9.0625 6.41667C9.92544 6.41667 10.625 5.76375 10.625 4.95833C10.625 4.15292 9.92544 3.5 9.0625 3.5C8.19955 3.5 7.5 4.15292 7.5 4.95833C7.5 5.76375 8.19955 6.41667 9.0625 6.41667Z" fill="#D8D4E5"/>
</svg>
