<svg width="29" height="34" viewBox="0 0 29 34" fill="none" xmlns="http://www.w3.org/2000/svg">
<path opacity="0.2" d="M24.4688 21.25L18.125 28.6875V21.25H24.4688Z" fill="#222222"/>
<path d="M9.96875 12.75C9.96875 12.4682 10.0642 12.198 10.2342 11.9987C10.4041 11.7994 10.6346 11.6875 10.875 11.6875H18.125C18.3654 11.6875 18.5959 11.7994 18.7658 11.9987C18.9358 12.198 19.0312 12.4682 19.0312 12.75C19.0312 13.0318 18.9358 13.302 18.7658 13.5013C18.5959 13.7006 18.3654 13.8125 18.125 13.8125H10.875C10.6346 13.8125 10.4041 13.7006 10.2342 13.5013C10.0642 13.302 9.96875 13.0318 9.96875 12.75ZM10.875 18.0625H18.125C18.3654 18.0625 18.5959 17.9506 18.7658 17.7513C18.9358 17.552 19.0312 17.2818 19.0312 17C19.0312 16.7182 18.9358 16.448 18.7658 16.2487C18.5959 16.0494 18.3654 15.9375 18.125 15.9375H10.875C10.6346 15.9375 10.4041 16.0494 10.2342 16.2487C10.0642 16.448 9.96875 16.7182 9.96875 17C9.96875 17.2818 10.0642 17.552 10.2342 17.7513C10.4041 17.9506 10.6346 18.0625 10.875 18.0625ZM14.5 20.1875H10.875C10.6346 20.1875 10.4041 20.2994 10.2342 20.4987C10.0642 20.698 9.96875 20.9682 9.96875 21.25C9.96875 21.5318 10.0642 21.802 10.2342 22.0013C10.4041 22.2006 10.6346 22.3125 10.875 22.3125H14.5C14.7404 22.3125 14.9709 22.2006 15.1408 22.0013C15.3108 21.802 15.4062 21.5318 15.4062 21.25C15.4062 20.9682 15.3108 20.698 15.1408 20.4987C14.9709 20.2994 14.7404 20.1875 14.5 20.1875ZM25.375 6.375V20.8104C25.3758 21.0895 25.3292 21.3661 25.238 21.624C25.1468 21.8818 25.0127 22.1159 24.8437 22.3125L19.0312 29.1271C18.8636 29.3253 18.6639 29.4824 18.444 29.5893C18.224 29.6963 17.9881 29.7509 17.75 29.75H5.4375C4.95679 29.75 4.49578 29.5261 4.15587 29.1276C3.81596 28.7291 3.625 28.1886 3.625 27.625V6.375C3.625 5.81141 3.81596 5.27091 4.15587 4.8724C4.49578 4.47388 4.95679 4.25 5.4375 4.25H23.5625C24.0432 4.25 24.5042 4.47388 24.8441 4.8724C25.184 5.27091 25.375 5.81141 25.375 6.375ZM5.4375 27.625H17.2187V21.25C17.2187 20.9682 17.3142 20.698 17.4842 20.4987C17.6541 20.2994 17.8846 20.1875 18.125 20.1875H23.5625V6.375H5.4375V27.625ZM19.0312 22.3125V26.1242L22.2813 22.3125H19.0312Z" fill="#222222"/>
</svg>

