<svg width="60" height="59" viewBox="0 0 60 59" fill="none" xmlns="http://www.w3.org/2000/svg">
<path d="M33.6769 20.2812C33.6769 18.5698 34.3518 16.9284 35.5531 15.7182C36.7544 14.508 38.3837 13.8281 40.0826 13.8281C41.7815 13.8281 43.4109 14.508 44.6122 15.7182C45.8135 16.9284 46.4884 18.5698 46.4884 20.2812C46.4884 21.9927 45.8135 23.6341 44.6122 24.8443C43.4109 26.0545 41.7815 26.7344 40.0826 26.7344C38.3837 26.7344 36.7544 26.0545 35.5531 24.8443C34.3518 23.6341 33.6769 21.9927 33.6769 20.2812ZM40.0826 17.5156C39.7221 17.5156 39.3651 17.5872 39.032 17.7261C38.699 17.8651 38.3963 18.0688 38.1414 18.3257C37.8865 18.5825 37.6843 18.8874 37.5463 19.2229C37.4083 19.5584 37.3373 19.9181 37.3373 20.2812C37.3373 20.6444 37.4083 21.0041 37.5463 21.3396C37.6843 21.6751 37.8865 21.98 38.1414 22.2368C38.3963 22.4937 38.699 22.6974 39.032 22.8364C39.3651 22.9753 39.7221 23.0469 40.0826 23.0469C40.8107 23.0469 41.509 22.7555 42.0239 22.2368C42.5387 21.7182 42.8279 21.0147 42.8279 20.2812C42.8279 19.5478 42.5387 18.8443 42.0239 18.3257C41.509 17.807 40.8107 17.5156 40.0826 17.5156ZM6.22375 13.8281C6.22375 11.6277 7.09147 9.51731 8.63601 7.96135C10.1805 6.40538 12.2754 5.53125 14.4597 5.53125H45.5733C47.7576 5.53125 49.8524 6.40538 51.397 7.96135C52.9415 9.51731 53.8092 11.6277 53.8092 13.8281V45.1719C53.8092 47.3723 52.9415 49.4827 51.397 51.0387C49.8524 52.5946 47.7576 53.4688 45.5733 53.4688H14.4597C12.2754 53.4688 10.1805 52.5946 8.63601 51.0387C7.09147 49.4827 6.22375 47.3723 6.22375 45.1719V13.8281ZM14.4597 9.21875C13.2462 9.21875 12.0824 9.70438 11.2243 10.5688C10.3662 11.4332 9.88417 12.6056 9.88417 13.8281V45.1719C9.88417 45.7066 9.97568 46.2173 10.1404 46.693L26.7807 29.9278C27.2056 29.4996 27.71 29.16 28.2652 28.9283C28.8204 28.6965 29.4155 28.5773 30.0165 28.5773C30.6174 28.5773 31.2125 28.6965 31.7677 28.9283C32.3229 29.16 32.8274 29.4996 33.2523 29.9278L49.8944 46.693C50.0591 46.2173 50.1488 45.7047 50.1488 45.1719V13.8281C50.1488 12.6056 49.6667 11.4332 48.8086 10.5688C47.9506 9.70438 46.7868 9.21875 45.5733 9.21875H14.4597ZM47.4035 49.3978L30.6644 32.5348C30.4928 32.362 30.26 32.2649 30.0174 32.2649C29.7747 32.2649 29.542 32.362 29.3704 32.5348L12.6295 49.3978C13.1895 49.6448 13.8081 49.7812 14.4579 49.7812H45.5714C46.2013 49.7822 46.8263 49.6516 47.4035 49.3978Z" fill="#383431"/>
</svg>
