<svg width="792" height="178" viewBox="0 0 792 178" fill="none" xmlns="http://www.w3.org/2000/svg">
<path d="M9.79743 165.912V171.865C9.79743 172.527 9.59323 173.059 9.18482 173.46C8.77641 173.853 8.23701 174.049 7.5666 174.049C6.88849 174.049 6.34523 173.849 5.93683 173.448C5.52842 173.04 5.32422 172.485 5.32422 171.784H6.37606C6.38376 172.177 6.48394 172.496 6.67658 172.743C6.87693 172.99 7.17361 173.113 7.5666 173.113C7.9596 173.113 8.25242 172.997 8.44507 172.766C8.63771 172.527 8.73403 172.227 8.73403 171.865V165.912H9.79743ZM11.4766 170.778C11.4766 170.131 11.6076 169.564 11.8696 169.079C12.1316 168.586 12.4899 168.204 12.9446 167.935C13.4069 167.665 13.9193 167.53 14.4819 167.53C15.0367 167.53 15.5183 167.65 15.9267 167.888C16.3351 168.127 16.6395 168.428 16.8398 168.79V167.634H17.9032V173.968H16.8398V172.789C16.6318 173.159 16.3197 173.467 15.9036 173.714C15.4952 173.953 15.0174 174.072 14.4703 174.072C13.9078 174.072 13.3992 173.934 12.9446 173.656C12.4899 173.379 12.1316 172.99 11.8696 172.489C11.6076 171.988 11.4766 171.418 11.4766 170.778ZM16.8398 170.79C16.8398 170.312 16.7435 169.896 16.5509 169.541C16.3582 169.187 16.0962 168.917 15.7649 168.732C15.4412 168.54 15.0829 168.443 14.6899 168.443C14.2969 168.443 13.9386 168.536 13.615 168.721C13.2913 168.906 13.0332 169.175 12.8405 169.53C12.6479 169.884 12.5516 170.3 12.5516 170.778C12.5516 171.264 12.6479 171.687 12.8405 172.05C13.0332 172.404 13.2913 172.678 13.615 172.87C13.9386 173.055 14.2969 173.148 14.6899 173.148C15.0829 173.148 15.4412 173.055 15.7649 172.87C16.0962 172.678 16.3582 172.404 16.5509 172.05C16.7435 171.687 16.8398 171.267 16.8398 170.79ZM22.7669 167.519C23.5375 167.519 24.1617 167.754 24.6394 168.224C25.1172 168.686 25.3561 169.356 25.3561 170.235V173.968H24.3158V170.385C24.3158 169.753 24.1578 169.272 23.8419 168.94C23.526 168.601 23.0944 168.432 22.5473 168.432C21.9925 168.432 21.5494 168.605 21.2181 168.952C20.8944 169.299 20.7326 169.803 20.7326 170.466V173.968H19.6808V167.634H20.7326V168.536C20.9407 168.212 21.2219 167.962 21.5764 167.784C21.9386 167.607 22.3354 167.519 22.7669 167.519Z" fill="#929292"/>
<path d="M79.6157 165.912V166.767H76.1134V169.483H78.9569V170.339H76.1134V173.968H75.0616V165.912H79.6157ZM86.6655 170.558C86.6655 170.759 86.6539 170.971 86.6308 171.194H81.5681C81.6066 171.818 81.8185 172.308 82.2038 172.662C82.5968 173.009 83.0707 173.182 83.6255 173.182C84.0802 173.182 84.4577 173.078 84.7583 172.87C85.0665 172.654 85.2823 172.369 85.4056 172.015H86.5383C86.3688 172.624 86.0297 173.121 85.5211 173.506C85.0126 173.883 84.3807 174.072 83.6255 174.072C83.0245 174.072 82.4851 173.937 82.0073 173.668C81.5373 173.398 81.1674 173.017 80.8977 172.523C80.628 172.023 80.4931 171.445 80.4931 170.79C80.4931 170.135 80.6241 169.561 80.8861 169.067C81.1481 168.574 81.5141 168.197 81.9842 167.935C82.4619 167.665 83.0091 167.53 83.6255 167.53C84.2266 167.53 84.7583 167.661 85.2206 167.923C85.683 168.185 86.0374 168.547 86.284 169.01C86.5383 169.464 86.6655 169.981 86.6655 170.558ZM85.5789 170.339C85.5789 169.938 85.4903 169.595 85.3131 169.31C85.1359 169.017 84.8931 168.798 84.5849 168.651C84.2844 168.497 83.9492 168.42 83.5793 168.42C83.0476 168.42 82.5929 168.59 82.2154 168.929C81.8455 169.268 81.6336 169.738 81.5796 170.339H85.5789ZM89.1057 168.813C89.3215 168.435 89.6374 168.127 90.0535 167.888C90.4696 167.65 90.9435 167.53 91.4752 167.53C92.0455 167.53 92.5579 167.665 93.0125 167.935C93.4672 168.204 93.8255 168.586 94.0875 169.079C94.3495 169.564 94.4805 170.131 94.4805 170.778C94.4805 171.418 94.3495 171.988 94.0875 172.489C93.8255 172.99 93.4633 173.379 93.001 173.656C92.5463 173.934 92.0378 174.072 91.4752 174.072C90.9281 174.072 90.4465 173.953 90.0304 173.714C89.622 173.475 89.3138 173.171 89.1057 172.801V173.968H88.0539V165.415H89.1057V168.813ZM93.4055 170.778C93.4055 170.3 93.3092 169.884 93.1166 169.53C92.9239 169.175 92.6619 168.906 92.3306 168.721C92.0069 168.536 91.6486 168.443 91.2556 168.443C90.8703 168.443 90.512 168.54 90.1807 168.732C89.857 168.917 89.595 169.191 89.3947 169.553C89.202 169.907 89.1057 170.32 89.1057 170.79C89.1057 171.267 89.202 171.687 89.3947 172.05C89.595 172.404 89.857 172.678 90.1807 172.87C90.512 173.055 90.8703 173.148 91.2556 173.148C91.6486 173.148 92.0069 173.055 92.3306 172.87C92.6619 172.678 92.9239 172.404 93.1166 172.05C93.3092 171.687 93.4055 171.264 93.4055 170.778Z" fill="#929292"/>
<path d="M151.989 165.97V173.968H150.937V168.004L148.279 173.968H147.539L144.869 167.992V173.968H143.817V165.97H144.95L147.909 172.581L150.868 165.97H151.989ZM153.38 170.778C153.38 170.131 153.511 169.564 153.773 169.079C154.035 168.586 154.393 168.204 154.848 167.935C155.31 167.665 155.823 167.53 156.385 167.53C156.94 167.53 157.422 167.65 157.83 167.888C158.239 168.127 158.543 168.428 158.743 168.79V167.634H159.807V173.968H158.743V172.789C158.535 173.159 158.223 173.467 157.807 173.714C157.399 173.953 156.921 174.072 156.374 174.072C155.811 174.072 155.303 173.934 154.848 173.656C154.393 173.379 154.035 172.99 153.773 172.489C153.511 171.988 153.38 171.418 153.38 170.778ZM158.743 170.79C158.743 170.312 158.647 169.896 158.454 169.541C158.262 169.187 158 168.917 157.668 168.732C157.345 168.54 156.986 168.443 156.593 168.443C156.2 168.443 155.842 168.536 155.518 168.721C155.195 168.906 154.937 169.175 154.744 169.53C154.551 169.884 154.455 170.3 154.455 170.778C154.455 171.264 154.551 171.687 154.744 172.05C154.937 172.404 155.195 172.678 155.518 172.87C155.842 173.055 156.2 173.148 156.593 173.148C156.986 173.148 157.345 173.055 157.668 172.87C158 172.678 158.262 172.404 158.454 172.05C158.647 171.687 158.743 171.267 158.743 170.79ZM162.636 168.663C162.821 168.301 163.083 168.019 163.422 167.819C163.769 167.619 164.189 167.519 164.682 167.519V168.605H164.405C163.226 168.605 162.636 169.245 162.636 170.524V173.968H161.584V167.634H162.636V168.663Z" fill="#929292"/>
<path d="M219.056 172.177H215.543L214.895 173.968H213.786L216.698 165.958H217.912L220.813 173.968H219.704L219.056 172.177ZM218.756 171.321L217.299 167.253L215.843 171.321H218.756ZM223.135 168.802C223.343 168.439 223.651 168.139 224.059 167.9C224.475 167.653 224.957 167.53 225.504 167.53C226.067 167.53 226.575 167.665 227.03 167.935C227.492 168.204 227.854 168.586 228.116 169.079C228.378 169.564 228.509 170.131 228.509 170.778C228.509 171.418 228.378 171.988 228.116 172.489C227.854 172.99 227.492 173.379 227.03 173.656C226.575 173.934 226.067 174.072 225.504 174.072C224.965 174.072 224.487 173.953 224.071 173.714C223.662 173.467 223.35 173.163 223.135 172.801V176.974H222.083V167.634H223.135V168.802ZM227.434 170.778C227.434 170.3 227.338 169.884 227.145 169.53C226.953 169.175 226.691 168.906 226.359 168.721C226.036 168.536 225.678 168.443 225.285 168.443C224.899 168.443 224.541 168.54 224.21 168.732C223.886 168.917 223.624 169.191 223.424 169.553C223.231 169.907 223.135 170.32 223.135 170.79C223.135 171.267 223.231 171.687 223.424 172.05C223.624 172.404 223.886 172.678 224.21 172.87C224.541 173.055 224.899 173.148 225.285 173.148C225.678 173.148 226.036 173.055 226.359 172.87C226.691 172.678 226.953 172.404 227.145 172.05C227.338 171.687 227.434 171.264 227.434 170.778ZM230.946 168.663C231.131 168.301 231.393 168.019 231.732 167.819C232.079 167.619 232.498 167.519 232.992 167.519V168.605H232.714C231.535 168.605 230.946 169.245 230.946 170.524V173.968H229.894V167.634H230.946V168.663Z" fill="#929292"/>
<path d="M289.338 165.97V173.968H288.286V168.004L285.628 173.968H284.888L282.218 167.992V173.968H281.166V165.97H282.299L285.258 172.581L288.217 165.97H289.338ZM290.729 170.778C290.729 170.131 290.86 169.564 291.122 169.079C291.384 168.586 291.742 168.204 292.197 167.935C292.659 167.665 293.172 167.53 293.734 167.53C294.289 167.53 294.771 167.65 295.179 167.888C295.587 168.127 295.892 168.428 296.092 168.79V167.634H297.155V173.968H296.092V172.789C295.884 173.159 295.572 173.467 295.156 173.714C294.747 173.953 294.27 174.072 293.723 174.072C293.16 174.072 292.651 173.934 292.197 173.656C291.742 173.379 291.384 172.99 291.122 172.489C290.86 171.988 290.729 171.418 290.729 170.778ZM296.092 170.79C296.092 170.312 295.996 169.896 295.803 169.541C295.61 169.187 295.348 168.917 295.017 168.732C294.693 168.54 294.335 168.443 293.942 168.443C293.549 168.443 293.191 168.536 292.867 168.721C292.544 168.906 292.285 169.175 292.093 169.53C291.9 169.884 291.804 170.3 291.804 170.778C291.804 171.264 291.9 171.687 292.093 172.05C292.285 172.404 292.544 172.678 292.867 172.87C293.191 173.055 293.549 173.148 293.942 173.148C294.335 173.148 294.693 173.055 295.017 172.87C295.348 172.678 295.61 172.404 295.803 172.05C295.996 171.687 296.092 171.267 296.092 170.79ZM304.389 167.634L300.574 176.95H299.488L300.736 173.899L298.182 167.634H299.349L301.337 172.766L303.302 167.634H304.389Z" fill="#929292"/>
<path d="M355.961 165.912V171.865C355.961 172.527 355.757 173.059 355.348 173.46C354.94 173.853 354.401 174.049 353.73 174.049C353.052 174.049 352.509 173.849 352.1 173.448C351.692 173.04 351.488 172.485 351.488 171.784H352.54C352.547 172.177 352.648 172.496 352.84 172.743C353.041 172.99 353.337 173.113 353.73 173.113C354.123 173.113 354.416 172.997 354.609 172.766C354.801 172.527 354.898 172.227 354.898 171.865V165.912H355.961ZM363.651 167.634V173.968H362.599V173.032C362.399 173.356 362.117 173.61 361.755 173.795C361.401 173.972 361.008 174.061 360.576 174.061C360.083 174.061 359.64 173.961 359.247 173.76C358.854 173.552 358.542 173.244 358.311 172.836C358.087 172.427 357.975 171.93 357.975 171.344V167.634H359.016V171.206C359.016 171.83 359.174 172.312 359.49 172.651C359.806 172.982 360.237 173.148 360.784 173.148C361.347 173.148 361.79 172.974 362.113 172.627C362.437 172.281 362.599 171.776 362.599 171.113V167.634H363.651ZM368.513 167.519C369.283 167.519 369.908 167.754 370.385 168.224C370.863 168.686 371.102 169.356 371.102 170.235V173.968H370.062V170.385C370.062 169.753 369.904 169.272 369.588 168.94C369.272 168.601 368.84 168.432 368.293 168.432C367.738 168.432 367.295 168.605 366.964 168.952C366.64 169.299 366.479 169.803 366.479 170.466V173.968H365.427V167.634H366.479V168.536C366.687 168.212 366.968 167.962 367.322 167.784C367.685 167.607 368.081 167.519 368.513 167.519Z" fill="#929292"/>
<path d="M427.292 165.912V171.865C427.292 172.527 427.087 173.059 426.679 173.46C426.271 173.853 425.731 174.049 425.061 174.049C424.383 174.049 423.839 173.849 423.431 173.448C423.023 173.04 422.818 172.485 422.818 171.784H423.87C423.878 172.177 423.978 172.496 424.171 172.743C424.371 172.99 424.668 173.113 425.061 173.113C425.454 173.113 425.747 172.997 425.939 172.766C426.132 172.527 426.228 172.227 426.228 171.865V165.912H427.292ZM434.981 167.634V173.968H433.929V173.032C433.729 173.356 433.448 173.61 433.086 173.795C432.731 173.972 432.338 174.061 431.907 174.061C431.413 174.061 430.97 173.961 430.577 173.76C430.184 173.552 429.872 173.244 429.641 172.836C429.418 172.427 429.306 171.93 429.306 171.344V167.634H430.346V171.206C430.346 171.83 430.504 172.312 430.82 172.651C431.136 172.982 431.568 173.148 432.115 173.148C432.677 173.148 433.12 172.974 433.444 172.627C433.768 172.281 433.929 171.776 433.929 171.113V167.634H434.981ZM437.809 165.415V173.968H436.757V165.415H437.809Z" fill="#929292"/>
<path d="M493.74 172.177H490.226L489.579 173.968H488.469L491.382 165.958H492.595L495.497 173.968H494.387L493.74 172.177ZM493.439 171.321L491.983 167.253L490.526 171.321H493.439ZM502.384 167.634V173.968H501.332V173.032C501.131 173.356 500.85 173.61 500.488 173.795C500.134 173.972 499.741 174.061 499.309 174.061C498.816 174.061 498.373 173.961 497.98 173.76C497.587 173.552 497.275 173.244 497.043 172.836C496.82 172.427 496.708 171.93 496.708 171.344V167.634H497.749V171.206C497.749 171.83 497.907 172.312 498.222 172.651C498.538 172.982 498.97 173.148 499.517 173.148C500.08 173.148 500.523 172.974 500.846 172.627C501.17 172.281 501.332 171.776 501.332 171.113V167.634H502.384ZM506.772 167.53C507.319 167.53 507.797 167.65 508.205 167.888C508.621 168.127 508.929 168.428 509.13 168.79V167.634H510.193V174.107C510.193 174.685 510.07 175.197 509.823 175.644C509.577 176.099 509.222 176.453 508.76 176.708C508.305 176.962 507.774 177.089 507.165 177.089C506.333 177.089 505.639 176.893 505.084 176.5C504.529 176.107 504.202 175.571 504.102 174.893H505.142C505.258 175.278 505.497 175.586 505.859 175.818C506.221 176.057 506.656 176.176 507.165 176.176C507.743 176.176 508.213 175.995 508.575 175.633C508.945 175.271 509.13 174.762 509.13 174.107V172.778C508.922 173.148 508.614 173.456 508.205 173.702C507.797 173.949 507.319 174.072 506.772 174.072C506.209 174.072 505.697 173.934 505.235 173.656C504.78 173.379 504.422 172.99 504.16 172.489C503.898 171.988 503.767 171.418 503.767 170.778C503.767 170.131 503.898 169.564 504.16 169.079C504.422 168.586 504.78 168.204 505.235 167.935C505.697 167.665 506.209 167.53 506.772 167.53ZM509.13 170.79C509.13 170.312 509.034 169.896 508.841 169.541C508.648 169.187 508.386 168.917 508.055 168.732C507.731 168.54 507.373 168.443 506.98 168.443C506.587 168.443 506.229 168.536 505.905 168.721C505.581 168.906 505.323 169.175 505.131 169.53C504.938 169.884 504.842 170.3 504.842 170.778C504.842 171.264 504.938 171.687 505.131 172.05C505.323 172.404 505.581 172.678 505.905 172.87C506.229 173.055 506.587 173.148 506.98 173.148C507.373 173.148 507.731 173.055 508.055 172.87C508.386 172.678 508.648 172.404 508.841 172.05C509.034 171.687 509.13 171.267 509.13 170.79Z" fill="#929292"/>
<path d="M561.541 174.049C561.009 174.049 560.531 173.957 560.107 173.772C559.691 173.579 559.364 173.317 559.125 172.986C558.886 172.647 558.763 172.258 558.755 171.818H559.876C559.915 172.196 560.069 172.516 560.338 172.778C560.616 173.032 561.017 173.159 561.541 173.159C562.041 173.159 562.434 173.036 562.72 172.789C563.012 172.535 563.159 172.211 563.159 171.818C563.159 171.51 563.074 171.26 562.904 171.067C562.735 170.874 562.523 170.728 562.269 170.628C562.014 170.528 561.672 170.42 561.24 170.304C560.708 170.165 560.281 170.027 559.957 169.888C559.641 169.749 559.367 169.534 559.136 169.241C558.913 168.94 558.801 168.54 558.801 168.039C558.801 167.599 558.913 167.21 559.136 166.871C559.36 166.532 559.672 166.27 560.073 166.085C560.481 165.9 560.947 165.808 561.471 165.808C562.226 165.808 562.843 165.997 563.321 166.374C563.806 166.752 564.08 167.253 564.141 167.877H562.985C562.947 167.569 562.785 167.299 562.5 167.068C562.215 166.829 561.837 166.709 561.367 166.709C560.928 166.709 560.57 166.825 560.292 167.056C560.015 167.28 559.876 167.596 559.876 168.004C559.876 168.297 559.957 168.536 560.119 168.721C560.288 168.906 560.493 169.048 560.731 169.148C560.978 169.241 561.321 169.349 561.76 169.472C562.292 169.618 562.72 169.765 563.043 169.911C563.367 170.05 563.644 170.269 563.875 170.57C564.107 170.863 564.222 171.264 564.222 171.772C564.222 172.165 564.118 172.535 563.91 172.882C563.702 173.229 563.394 173.51 562.985 173.726C562.577 173.941 562.095 174.049 561.541 174.049ZM571.549 170.558C571.549 170.759 571.538 170.971 571.515 171.194H566.452C566.491 171.818 566.702 172.308 567.088 172.662C567.481 173.009 567.955 173.182 568.509 173.182C568.964 173.182 569.342 173.078 569.642 172.87C569.95 172.654 570.166 172.369 570.289 172.015H571.422C571.253 172.624 570.914 173.121 570.405 173.506C569.896 173.883 569.265 174.072 568.509 174.072C567.908 174.072 567.369 173.937 566.891 173.668C566.421 173.398 566.051 173.017 565.782 172.523C565.512 172.023 565.377 171.445 565.377 170.79C565.377 170.135 565.508 169.561 565.77 169.067C566.032 168.574 566.398 168.197 566.868 167.935C567.346 167.665 567.893 167.53 568.509 167.53C569.11 167.53 569.642 167.661 570.105 167.923C570.567 168.185 570.921 168.547 571.168 169.01C571.422 169.464 571.549 169.981 571.549 170.558ZM570.463 170.339C570.463 169.938 570.374 169.595 570.197 169.31C570.02 169.017 569.777 168.798 569.469 168.651C569.168 168.497 568.833 168.42 568.463 168.42C567.931 168.42 567.477 168.59 567.099 168.929C566.729 169.268 566.517 169.738 566.464 170.339H570.463ZM573.99 168.802C574.198 168.439 574.506 168.139 574.914 167.9C575.33 167.653 575.812 167.53 576.359 167.53C576.922 167.53 577.43 167.665 577.885 167.935C578.347 168.204 578.709 168.586 578.971 169.079C579.233 169.564 579.364 170.131 579.364 170.778C579.364 171.418 579.233 171.988 578.971 172.489C578.709 172.99 578.347 173.379 577.885 173.656C577.43 173.934 576.922 174.072 576.359 174.072C575.82 174.072 575.342 173.953 574.926 173.714C574.517 173.467 574.205 173.163 573.99 172.801V176.974H572.938V167.634H573.99V168.802ZM578.289 170.778C578.289 170.3 578.193 169.884 578 169.53C577.808 169.175 577.546 168.906 577.214 168.721C576.891 168.536 576.533 168.443 576.14 168.443C575.754 168.443 575.396 168.54 575.065 168.732C574.741 168.917 574.479 169.191 574.279 169.553C574.086 169.907 573.99 170.32 573.99 170.79C573.99 171.267 574.086 171.687 574.279 172.05C574.479 172.404 574.741 172.678 575.065 172.87C575.396 173.055 575.754 173.148 576.14 173.148C576.533 173.148 576.891 173.055 577.214 172.87C577.546 172.678 577.808 172.404 578 172.05C578.193 171.687 578.289 171.264 578.289 170.778Z" fill="#929292"/>
<path d="M632.754 174.049C632.007 174.049 631.325 173.876 630.708 173.529C630.092 173.175 629.603 172.685 629.24 172.061C628.886 171.429 628.709 170.72 628.709 169.934C628.709 169.148 628.886 168.443 629.24 167.819C629.603 167.187 630.092 166.698 630.708 166.351C631.325 165.997 632.007 165.819 632.754 165.819C633.51 165.819 634.195 165.997 634.812 166.351C635.428 166.698 635.914 167.183 636.268 167.807C636.623 168.432 636.8 169.141 636.8 169.934C636.8 170.728 636.623 171.437 636.268 172.061C635.914 172.685 635.428 173.175 634.812 173.529C634.195 173.876 633.51 174.049 632.754 174.049ZM632.754 173.136C633.317 173.136 633.822 173.005 634.269 172.743C634.723 172.481 635.078 172.107 635.332 171.622C635.594 171.136 635.725 170.574 635.725 169.934C635.725 169.287 635.594 168.724 635.332 168.247C635.078 167.761 634.727 167.388 634.28 167.126C633.833 166.864 633.325 166.733 632.754 166.733C632.184 166.733 631.676 166.864 631.229 167.126C630.782 167.388 630.427 167.761 630.165 168.247C629.911 168.724 629.784 169.287 629.784 169.934C629.784 170.574 629.911 171.136 630.165 171.622C630.427 172.107 630.782 172.481 631.229 172.743C631.683 173.005 632.192 173.136 632.754 173.136ZM637.795 170.79C637.795 170.135 637.926 169.564 638.188 169.079C638.45 168.586 638.813 168.204 639.275 167.935C639.745 167.665 640.281 167.53 640.882 167.53C641.66 167.53 642.3 167.719 642.8 168.096C643.309 168.474 643.644 168.998 643.806 169.668H642.673C642.565 169.283 642.353 168.979 642.038 168.755C641.729 168.532 641.344 168.42 640.882 168.42C640.281 168.42 639.795 168.628 639.425 169.044C639.055 169.453 638.87 170.034 638.87 170.79C638.87 171.552 639.055 172.142 639.425 172.558C639.795 172.974 640.281 173.182 640.882 173.182C641.344 173.182 641.729 173.074 642.038 172.859C642.346 172.643 642.558 172.335 642.673 171.934H643.806C643.636 172.581 643.297 173.101 642.789 173.494C642.28 173.88 641.645 174.072 640.882 174.072C640.281 174.072 639.745 173.937 639.275 173.668C638.813 173.398 638.45 173.017 638.188 172.523C637.926 172.03 637.795 171.452 637.795 170.79ZM646.492 168.501V172.234C646.492 172.543 646.558 172.762 646.689 172.893C646.82 173.017 647.047 173.078 647.371 173.078H648.145V173.968H647.198C646.612 173.968 646.173 173.833 645.88 173.564C645.587 173.294 645.441 172.851 645.441 172.234V168.501H644.62V167.634H645.441V166.039H646.492V167.634H648.145V168.501H646.492Z" fill="#929292"/>
<path d="M703.651 173.968H702.599L698.369 167.553V173.968H697.317V165.9H698.369L702.599 172.304V165.9H703.651V173.968ZM708.207 174.072C707.613 174.072 707.074 173.937 706.588 173.668C706.111 173.398 705.733 173.017 705.456 172.523C705.186 172.023 705.051 171.445 705.051 170.79C705.051 170.142 705.19 169.572 705.467 169.079C705.752 168.578 706.138 168.197 706.623 167.935C707.109 167.665 707.652 167.53 708.253 167.53C708.854 167.53 709.397 167.665 709.883 167.935C710.368 168.197 710.75 168.574 711.027 169.067C711.312 169.561 711.455 170.135 711.455 170.79C711.455 171.445 711.308 172.023 711.015 172.523C710.73 173.017 710.341 173.398 709.848 173.668C709.355 173.937 708.808 174.072 708.207 174.072ZM708.207 173.148C708.584 173.148 708.939 173.059 709.27 172.882C709.601 172.705 709.867 172.439 710.068 172.084C710.276 171.73 710.38 171.298 710.38 170.79C710.38 170.281 710.279 169.85 710.079 169.495C709.879 169.141 709.617 168.879 709.293 168.709C708.97 168.532 708.619 168.443 708.241 168.443C707.856 168.443 707.502 168.532 707.178 168.709C706.862 168.879 706.608 169.141 706.415 169.495C706.222 169.85 706.126 170.281 706.126 170.79C706.126 171.306 706.219 171.741 706.403 172.096C706.596 172.45 706.85 172.716 707.166 172.893C707.482 173.063 707.829 173.148 708.207 173.148ZM715.196 172.997L717.161 167.634H718.282L715.797 173.968H714.571L712.086 167.634H713.219L715.196 172.997Z" fill="#929292"/>
<path d="M768.701 165.912C769.579 165.912 770.338 166.078 770.978 166.409C771.625 166.733 772.118 167.199 772.457 167.807C772.804 168.416 772.977 169.133 772.977 169.957C772.977 170.782 772.804 171.499 772.457 172.107C772.118 172.708 771.625 173.171 770.978 173.494C770.338 173.81 769.579 173.968 768.701 173.968H766.192V165.912H768.701ZM768.701 173.101C769.741 173.101 770.535 172.828 771.082 172.281C771.629 171.726 771.902 170.951 771.902 169.957C771.902 168.956 771.625 168.173 771.07 167.611C770.523 167.048 769.733 166.767 768.701 166.767H767.244V173.101H768.701ZM780.144 170.558C780.144 170.759 780.132 170.971 780.109 171.194H775.047C775.085 171.818 775.297 172.308 775.682 172.662C776.075 173.009 776.549 173.182 777.104 173.182C777.559 173.182 777.936 173.078 778.237 172.87C778.545 172.654 778.761 172.369 778.884 172.015H780.017C779.847 172.624 779.508 173.121 779 173.506C778.491 173.883 777.859 174.072 777.104 174.072C776.503 174.072 775.964 173.937 775.486 173.668C775.016 173.398 774.646 173.017 774.376 172.523C774.107 172.023 773.972 171.445 773.972 170.79C773.972 170.135 774.103 169.561 774.365 169.067C774.627 168.574 774.993 168.197 775.463 167.935C775.941 167.665 776.488 167.53 777.104 167.53C777.705 167.53 778.237 167.661 778.699 167.923C779.162 168.185 779.516 168.547 779.763 169.01C780.017 169.464 780.144 169.981 780.144 170.558ZM779.058 170.339C779.058 169.938 778.969 169.595 778.792 169.31C778.614 169.017 778.372 168.798 778.063 168.651C777.763 168.497 777.428 168.42 777.058 168.42C776.526 168.42 776.072 168.59 775.694 168.929C775.324 169.268 775.112 169.738 775.058 170.339H779.058ZM781.139 170.79C781.139 170.135 781.27 169.564 781.532 169.079C781.794 168.586 782.157 168.204 782.619 167.935C783.089 167.665 783.625 167.53 784.226 167.53C785.004 167.53 785.643 167.719 786.144 168.096C786.653 168.474 786.988 168.998 787.15 169.668H786.017C785.909 169.283 785.697 168.979 785.381 168.755C785.073 168.532 784.688 168.42 784.226 168.42C783.625 168.42 783.139 168.628 782.769 169.044C782.399 169.453 782.214 170.034 782.214 170.79C782.214 171.552 782.399 172.142 782.769 172.558C783.139 172.974 783.625 173.182 784.226 173.182C784.688 173.182 785.073 173.074 785.381 172.859C785.69 172.643 785.902 172.335 786.017 171.934H787.15C786.98 172.581 786.641 173.101 786.133 173.494C785.624 173.88 784.988 174.072 784.226 174.072C783.625 174.072 783.089 173.937 782.619 173.668C782.157 173.398 781.794 173.017 781.532 172.523C781.27 172.03 781.139 171.452 781.139 170.79Z" fill="#929292"/>
<line x1="18.363" y1="0.337332" x2="18.3629" y2="174.401" stroke="url(#paint0_linear_2540_271)" stroke-width="0.674664" stroke-linecap="round" stroke-dasharray="5.4 5.4"/>
<line x1="87.0856" y1="0.337332" x2="87.0856" y2="174.401" stroke="url(#paint1_linear_2540_271)" stroke-width="0.674664" stroke-linecap="round" stroke-dasharray="5.4 5.4"/>
<line x1="155.808" y1="0.337332" x2="155.808" y2="174.401" stroke="url(#paint2_linear_2540_271)" stroke-width="0.674664" stroke-linecap="round" stroke-dasharray="5.4 5.4"/>
<line x1="224.531" y1="0.337332" x2="224.531" y2="174.401" stroke="url(#paint3_linear_2540_271)" stroke-width="0.674664" stroke-linecap="round" stroke-dasharray="5.4 5.4"/>
<line x1="293.253" y1="0.337332" x2="293.253" y2="174.401" stroke="url(#paint4_linear_2540_271)" stroke-width="0.674664" stroke-linecap="round" stroke-dasharray="5.4 5.4"/>
<line x1="361.976" y1="0.337332" x2="361.976" y2="174.401" stroke="url(#paint5_linear_2540_271)" stroke-width="0.674664" stroke-linecap="round" stroke-dasharray="5.4 5.4"/>
<line x1="430.699" y1="0.337332" x2="430.699" y2="174.401" stroke="#252733" stroke-width="0.674664" stroke-linecap="round" stroke-dasharray="5.4 5.4"/>
<line x1="499.421" y1="0.337332" x2="499.421" y2="174.401" stroke="url(#paint6_linear_2540_271)" stroke-width="0.674664" stroke-linecap="round" stroke-dasharray="5.4 5.4"/>
<line x1="568.144" y1="0.337332" x2="568.144" y2="174.401" stroke="url(#paint7_linear_2540_271)" stroke-width="0.674664" stroke-linecap="round" stroke-dasharray="5.4 5.4"/>
<line x1="636.866" y1="0.337332" x2="636.866" y2="174.401" stroke="url(#paint8_linear_2540_271)" stroke-width="0.674664" stroke-linecap="round" stroke-dasharray="5.4 5.4"/>
<line x1="705.589" y1="0.337332" x2="705.589" y2="174.401" stroke="url(#paint9_linear_2540_271)" stroke-width="0.674664" stroke-linecap="round" stroke-dasharray="5.4 5.4"/>
<line x1="774.312" y1="0.337332" x2="774.312" y2="174.401" stroke="url(#paint10_linear_2540_271)" stroke-width="0.674664" stroke-linecap="round" stroke-dasharray="5.4 5.4"/>
<path d="M169.117 127.538C84.3685 127.538 53.5854 72.5106 18.2419 72.5106V148.46H774.898V47.5762C772.162 45.5126 761.597 44.6146 756.656 44.4236C684.069 44.4236 711.052 128.398 626.303 128.398C541.555 128.398 575.758 72.5106 494.05 72.5106C402.081 72.5106 429.823 17.7695 363.317 17.7695C296.81 17.7695 278.948 127.538 169.117 127.538Z" fill="url(#paint11_linear_2540_271)"/>
<path d="M18.2419 72.5106C53.5854 72.5106 84.3685 127.538 169.117 127.538C278.948 127.538 296.81 17.7695 363.317 17.7695C429.823 17.7695 402.081 72.5106 494.05 72.5106C575.758 72.5106 541.555 128.398 626.303 128.398C711.052 128.398 684.069 44.4236 756.656 44.4236C761.597 44.6146 772.162 45.5126 774.898 47.5762" stroke="#33C863" stroke-width="2.02399" stroke-linecap="round"/>
<path d="M436.792 53.8805C436.792 54.9175 436.237 55.9316 435.191 56.7204C434.145 57.5096 432.653 58.0274 430.964 58.0274C429.274 58.0274 427.782 57.5096 426.736 56.7204C425.69 55.9316 425.135 54.9175 425.135 53.8805C425.135 52.8435 425.69 51.8295 426.736 51.0407C427.782 50.2515 429.274 49.7337 430.964 49.7337C432.653 49.7337 434.145 50.2515 435.191 51.0407C436.237 51.8295 436.792 52.8435 436.792 53.8805Z" fill="white" stroke="#33C863" stroke-width="2.02399"/>
<g filter="url(#filter0_d_2540_271)">
<path fill-rule="evenodd" clip-rule="evenodd" d="M460.342 37.2578C455.87 37.2578 452.246 40.8825 452.246 45.3538V48.9165L443.686 52.6435C442.605 53.1141 442.605 54.6471 443.686 55.1178L452.246 58.8447V61.8345C452.246 66.3058 455.87 69.9305 460.342 69.9305H529.278C533.75 69.9305 537.374 66.3058 537.374 61.8345V45.3538C537.374 40.8825 533.75 37.2578 529.278 37.2578H460.342Z" fill="#252733" fill-opacity="0.88"/>
<path d="M474.61 45.1296V50.0902C474.61 50.6424 474.44 51.0855 474.1 51.4194C473.759 51.7469 473.31 51.9107 472.751 51.9107C472.186 51.9107 471.733 51.7437 471.393 51.4098C471.053 51.0695 470.883 50.6071 470.883 50.0228H471.759C471.765 50.3503 471.849 50.6168 472.01 50.8222C472.176 51.0277 472.424 51.1305 472.751 51.1305C473.079 51.1305 473.323 51.0342 473.483 50.8415C473.644 50.6424 473.724 50.392 473.724 50.0902V45.1296H474.61ZM481.018 46.5648V51.8433H480.142V51.063C479.975 51.3328 479.74 51.5447 479.439 51.6988C479.143 51.8465 478.816 51.9203 478.456 51.9203C478.045 51.9203 477.676 51.8368 477.348 51.6699C477.021 51.4965 476.761 51.2396 476.568 50.8993C476.382 50.559 476.289 50.1448 476.289 49.6567V46.5648H477.156V49.5412C477.156 50.0613 477.287 50.4626 477.551 50.7452C477.814 51.0213 478.174 51.1594 478.629 51.1594C479.098 51.1594 479.468 51.0149 479.737 50.7259C480.007 50.437 480.142 50.0163 480.142 49.4641V46.5648H481.018ZM483.375 44.7154V51.8433H482.498V44.7154H483.375ZM489.415 46.5648L486.236 54.3284H485.331L486.371 51.7855L484.243 46.5648H485.215L486.872 50.8415L488.51 46.5648H489.415Z" fill="#DDDFE5"/>
<path d="M477.798 65.8804H475.987L472.956 61.2925V65.8804H471.145V58.4423H472.956L475.987 63.0514V58.4423H477.798V65.8804ZM481.103 59.0993V58.2198H483.095V65.8804H482.12V59.0993H481.103ZM484.751 61.9706C484.751 60.7557 484.949 59.8092 485.344 59.1311C485.74 58.4459 486.432 58.1033 487.421 58.1033C488.403 58.1033 489.092 58.4459 489.487 59.1311C489.883 59.8092 490.081 60.7557 490.081 61.9706C490.081 63.2068 489.883 64.1674 489.487 64.8526C489.092 65.5378 488.403 65.8804 487.421 65.8804C486.432 65.8804 485.74 65.5378 485.344 64.8526C484.949 64.1674 484.751 63.2068 484.751 61.9706ZM489.127 61.9706C489.127 61.3561 489.085 60.8369 489 60.4131C488.922 59.9822 488.756 59.6361 488.502 59.3747C488.255 59.1134 487.894 58.9827 487.421 58.9827C486.941 58.9827 486.573 59.1134 486.319 59.3747C486.072 59.6361 485.906 59.9822 485.821 60.4131C485.743 60.8369 485.705 61.3561 485.705 61.9706C485.705 62.6064 485.743 63.1397 485.821 63.5706C485.906 64.0014 486.072 64.3476 486.319 64.6089C486.573 64.8703 486.941 65.0009 487.421 65.0009C487.894 65.0009 488.255 64.8703 488.502 64.6089C488.756 64.3476 488.922 64.0014 489 63.5706C489.085 63.1397 489.127 62.6064 489.127 61.9706ZM492.559 64.5453L491.372 67.3955H490.726L491.5 64.5453H492.559ZM498.389 59.0569H494.67V61.4727C494.833 61.2466 495.073 61.063 495.391 60.9217C495.709 60.7734 496.051 60.6992 496.418 60.6992C497.005 60.6992 497.482 60.8228 497.849 61.07C498.216 61.3102 498.478 61.6245 498.633 62.013C498.795 62.3945 498.877 62.8006 498.877 63.2315C498.877 63.7401 498.781 64.1957 498.591 64.5983C498.4 65.0009 498.107 65.3188 497.711 65.5519C497.323 65.785 496.839 65.9016 496.26 65.9016C495.518 65.9016 494.917 65.7108 494.458 65.3294C493.999 64.948 493.72 64.4394 493.621 63.8037H494.564C494.656 64.2063 494.85 64.5206 495.147 64.7467C495.444 64.9727 495.818 65.0857 496.27 65.0857C496.828 65.0857 497.248 64.9197 497.531 64.5877C497.814 64.2487 497.955 63.8037 497.955 63.2527C497.955 62.7017 497.814 62.2779 497.531 61.9812C497.248 61.6775 496.832 61.5256 496.281 61.5256C495.906 61.5256 495.578 61.6175 495.295 61.8011C495.02 61.9777 494.819 62.2214 494.691 62.5322H493.78V58.2092H498.389V59.0569ZM500.158 61.9706C500.158 60.7557 500.356 59.8092 500.751 59.1311C501.147 58.4459 501.839 58.1033 502.828 58.1033C503.81 58.1033 504.499 58.4459 504.894 59.1311C505.29 59.8092 505.487 60.7557 505.487 61.9706C505.487 63.2068 505.29 64.1674 504.894 64.8526C504.499 65.5378 503.81 65.8804 502.828 65.8804C501.839 65.8804 501.147 65.5378 500.751 64.8526C500.356 64.1674 500.158 63.2068 500.158 61.9706ZM504.534 61.9706C504.534 61.3561 504.491 60.8369 504.407 60.4131C504.329 59.9822 504.163 59.6361 503.909 59.3747C503.662 59.1134 503.301 58.9827 502.828 58.9827C502.348 58.9827 501.98 59.1134 501.726 59.3747C501.479 59.6361 501.313 59.9822 501.228 60.4131C501.15 60.8369 501.112 61.3561 501.112 61.9706C501.112 62.6064 501.15 63.1397 501.228 63.5706C501.313 64.0014 501.479 64.3476 501.726 64.6089C501.98 64.8703 502.348 65.0009 502.828 65.0009C503.301 65.0009 503.662 64.8703 503.909 64.6089C504.163 64.3476 504.329 64.0014 504.407 63.5706C504.491 63.1397 504.534 62.6064 504.534 61.9706ZM506.811 61.9706C506.811 60.7557 507.009 59.8092 507.404 59.1311C507.8 58.4459 508.492 58.1033 509.481 58.1033C510.463 58.1033 511.152 58.4459 511.547 59.1311C511.943 59.8092 512.141 60.7557 512.141 61.9706C512.141 63.2068 511.943 64.1674 511.547 64.8526C511.152 65.5378 510.463 65.8804 509.481 65.8804C508.492 65.8804 507.8 65.5378 507.404 64.8526C507.009 64.1674 506.811 63.2068 506.811 61.9706ZM511.187 61.9706C511.187 61.3561 511.145 60.8369 511.06 60.4131C510.982 59.9822 510.816 59.6361 510.562 59.3747C510.315 59.1134 509.954 58.9827 509.481 58.9827C509.001 58.9827 508.634 59.1134 508.379 59.3747C508.132 59.6361 507.966 59.9822 507.881 60.4131C507.804 60.8369 507.765 61.3561 507.765 61.9706C507.765 62.6064 507.804 63.1397 507.881 63.5706C507.966 64.0014 508.132 64.3476 508.379 64.6089C508.634 64.8703 509.001 65.0009 509.481 65.0009C509.954 65.0009 510.315 64.8703 510.562 64.6089C510.816 64.3476 510.982 64.0014 511.06 63.5706C511.145 63.1397 511.187 62.6064 511.187 61.9706Z" fill="#DDDFE5"/>
</g>
<defs>
<filter id="filter0_d_2540_271" x="421.286" y="23.7645" width="137.678" height="75.8514" filterUnits="userSpaceOnUse" color-interpolation-filters="sRGB">
<feFlood flood-opacity="0" result="BackgroundImageFix"/>
<feColorMatrix in="SourceAlpha" type="matrix" values="0 0 0 0 0 0 0 0 0 0 0 0 0 0 0 0 0 0 127 0" result="hardAlpha"/>
<feOffset dy="8.09597"/>
<feGaussianBlur stdDeviation="10.7946"/>
<feColorMatrix type="matrix" values="0 0 0 0 0.439216 0 0 0 0 0.690196 0 0 0 0 0.564706 0 0 0 0.12 0"/>
<feBlend mode="normal" in2="BackgroundImageFix" result="effect1_dropShadow_2540_271"/>
<feBlend mode="normal" in="SourceGraphic" in2="effect1_dropShadow_2540_271" result="shape"/>
</filter>
<linearGradient id="paint0_linear_2540_271" x1="18.0256" y1="87.369" x2="17.0256" y2="87.369" gradientUnits="userSpaceOnUse">
<stop stop-color="#DDDFE5" stop-opacity="0.72"/>
<stop offset="1" stop-color="#DDDFE5"/>
</linearGradient>
<linearGradient id="paint1_linear_2540_271" x1="86.7482" y1="87.369" x2="85.7482" y2="87.369" gradientUnits="userSpaceOnUse">
<stop stop-color="#DDDFE5" stop-opacity="0.72"/>
<stop offset="1" stop-color="#DDDFE5"/>
</linearGradient>
<linearGradient id="paint2_linear_2540_271" x1="155.471" y1="87.369" x2="154.471" y2="87.369" gradientUnits="userSpaceOnUse">
<stop stop-color="#DDDFE5" stop-opacity="0.72"/>
<stop offset="1" stop-color="#DDDFE5"/>
</linearGradient>
<linearGradient id="paint3_linear_2540_271" x1="224.193" y1="87.369" x2="223.193" y2="87.369" gradientUnits="userSpaceOnUse">
<stop stop-color="#DDDFE5" stop-opacity="0.72"/>
<stop offset="1" stop-color="#DDDFE5"/>
</linearGradient>
<linearGradient id="paint4_linear_2540_271" x1="292.916" y1="87.369" x2="291.916" y2="87.369" gradientUnits="userSpaceOnUse">
<stop stop-color="#DDDFE5" stop-opacity="0.72"/>
<stop offset="1" stop-color="#DDDFE5"/>
</linearGradient>
<linearGradient id="paint5_linear_2540_271" x1="361.639" y1="87.369" x2="360.639" y2="87.369" gradientUnits="userSpaceOnUse">
<stop stop-color="#DDDFE5" stop-opacity="0.72"/>
<stop offset="1" stop-color="#DDDFE5"/>
</linearGradient>
<linearGradient id="paint6_linear_2540_271" x1="499.084" y1="87.369" x2="498.084" y2="87.369" gradientUnits="userSpaceOnUse">
<stop stop-color="#DDDFE5" stop-opacity="0.72"/>
<stop offset="1" stop-color="#DDDFE5"/>
</linearGradient>
<linearGradient id="paint7_linear_2540_271" x1="567.806" y1="87.369" x2="566.806" y2="87.369" gradientUnits="userSpaceOnUse">
<stop stop-color="#DDDFE5" stop-opacity="0.72"/>
<stop offset="1" stop-color="#DDDFE5"/>
</linearGradient>
<linearGradient id="paint8_linear_2540_271" x1="636.529" y1="87.369" x2="635.529" y2="87.369" gradientUnits="userSpaceOnUse">
<stop stop-color="#DDDFE5" stop-opacity="0.72"/>
<stop offset="1" stop-color="#DDDFE5"/>
</linearGradient>
<linearGradient id="paint9_linear_2540_271" x1="705.252" y1="87.369" x2="704.252" y2="87.369" gradientUnits="userSpaceOnUse">
<stop stop-color="#DDDFE5" stop-opacity="0.72"/>
<stop offset="1" stop-color="#DDDFE5"/>
</linearGradient>
<linearGradient id="paint10_linear_2540_271" x1="773.974" y1="87.369" x2="772.974" y2="87.369" gradientUnits="userSpaceOnUse">
<stop stop-color="#DDDFE5" stop-opacity="0.72"/>
<stop offset="1" stop-color="#DDDFE5"/>
</linearGradient>
<linearGradient id="paint11_linear_2540_271" x1="396.57" y1="17.7695" x2="396.57" y2="148.46" gradientUnits="userSpaceOnUse">
<stop stop-color="#CCFFDC"/>
<stop offset="1" stop-color="#E7FFEF" stop-opacity="0"/>
</linearGradient>
</defs>
</svg>
