<svg width="45" height="45" viewBox="0 0 45 45" fill="none" xmlns="http://www.w3.org/2000/svg">
<rect width="4.28571" height="4.28571" rx="1.60714" fill="#3D277D"/>
<rect y="20.3574" width="4.28571" height="4.28571" rx="1.60714" fill="#3D277D"/>
<rect y="10.1787" width="4.28571" height="4.28571" rx="1.60714" fill="#3D277D"/>
<rect y="30.5356" width="4.28571" height="4.28571" rx="1.60714" fill="#3D277D"/>
<rect y="40.7139" width="4.28571" height="4.28571" rx="1.60714" fill="#3D277D"/>
<rect x="10.1785" width="4.28571" height="4.28571" rx="1.60714" fill="#3D277D"/>
<rect x="10.1785" y="20.3574" width="4.28571" height="4.28571" rx="1.60714" fill="#9E93BE"/>
<rect x="10.1785" y="10.1787" width="4.28571" height="4.28571" rx="1.60714" fill="#9E93BE"/>
<rect x="10.1785" y="30.5356" width="4.28571" height="4.28571" rx="1.60714" fill="#9E93BE"/>
<rect x="10.1785" y="40.7139" width="4.28571" height="4.28571" rx="1.60714" fill="#9E93BE"/>
<rect x="20.3572" width="4.28571" height="4.28571" rx="1.60714" fill="#3D277D"/>
<rect x="20.3572" y="20.3574" width="4.28571" height="4.28571" rx="1.60714" fill="#9E93BE"/>
<rect x="20.3572" y="10.1787" width="4.28571" height="4.28571" rx="1.60714" fill="#9E93BE"/>
<rect x="20.3572" y="30.5356" width="4.28571" height="4.28571" rx="1.60714" fill="#9E93BE"/>
<rect x="20.3572" y="40.7139" width="4.28571" height="4.28571" rx="1.60714" fill="#9E93BE"/>
<rect x="30.5357" width="4.28571" height="4.28571" rx="1.60714" fill="#3D277D"/>
<rect x="30.5357" y="20.3574" width="4.28571" height="4.28571" rx="1.60714" fill="#9E93BE"/>
<rect x="30.5357" y="10.1787" width="4.28571" height="4.28571" rx="1.60714" fill="#9E93BE"/>
<rect x="30.5357" y="30.5356" width="4.28571" height="4.28571" rx="1.60714" fill="#9E93BE"/>
<rect x="30.5357" y="40.7139" width="4.28571" height="4.28571" rx="1.60714" fill="#9E93BE"/>
<rect x="40.7143" width="4.28571" height="4.28571" rx="1.60714" fill="#3D277D"/>
<rect x="40.7143" y="20.3574" width="4.28571" height="4.28571" rx="1.60714" fill="#9E93BE"/>
<rect x="40.7143" y="10.1787" width="4.28571" height="4.28571" rx="1.60714" fill="#9E93BE"/>
<rect x="40.7143" y="30.5356" width="4.28571" height="4.28571" rx="1.60714" fill="#9E93BE"/>
<rect x="40.7143" y="40.7139" width="4.28571" height="4.28571" rx="1.60714" fill="#9E93BE"/>
</svg>
