<svg width="58" height="30" viewBox="0 0 58 30" fill="none" xmlns="http://www.w3.org/2000/svg">
<path d="M0.52 29C0.226667 29 0.08 28.8533 0.08 28.56C0.08 28.2667 0.173333 27.8933 0.36 27.44C0.573333 26.96 0.893333 26.5333 1.32 26.16C1.98667 25.6267 2.4 25.2267 2.56 24.96C2.74667 24.6933 2.93333 24.1067 3.12 23.2L5.64 8.88C5.72 8.37333 5.98667 7.85333 6.44 7.32C6.89333 6.78666 7.45333 6.34667 8.12 6C8.78667 5.65333 9.44 5.48 10.08 5.48C10.2933 5.48 10.44 5.52 10.52 5.6C10.6 5.65333 10.64 5.74667 10.64 5.88C10.64 6.04 10.5333 6.38667 10.32 6.92C10.1067 7.45333 9.90667 8.2 9.72 9.16L7.08 23.84C7 24.4533 6.78667 25 6.44 25.48V25.52C7.13333 25.6533 8.08 25.72 9.28 25.72C11.2 25.72 12.8533 25.2 14.24 24.16C15.6267 23.0933 16.68 21.6267 17.4 19.76C18.12 17.8667 18.48 15.6933 18.48 13.24C18.48 9.96 17.8133 7.56 16.48 6.04C15.1733 4.49333 13.1333 3.72 10.36 3.72C8.62667 3.72 7.10667 4.01333 5.8 4.6C4.49333 5.16 3.33333 6.04 2.32 7.24C2 7.58667 1.76 7.82667 1.6 7.96C1.44 8.09333 1.24 8.16 1 8.16C0.68 8.16 0.52 7.98667 0.52 7.64C0.52 7.45333 0.586667 7.16 0.72 6.76C1.52 4.94667 2.88 3.50667 4.8 2.44C6.74667 1.37333 9.08 0.839998 11.8 0.839998C15.4 0.839998 18.2 1.86666 20.2 3.92C22.2267 5.97333 23.24 8.97333 23.24 12.92C23.24 15.9067 22.6533 18.6267 21.48 21.08C20.3333 23.5067 18.68 25.44 16.52 26.88C14.36 28.2933 11.8533 29 9 29C8.09333 29 6.97333 28.8933 5.64 28.68C4.52 28.52 3.74667 28.44 3.32 28.44C2.65333 28.44 2.05333 28.5333 1.52 28.72C1.01333 28.9067 0.68 29 0.52 29ZM29.1544 29.4C27.8477 29.4 26.8077 28.92 26.0344 27.96C25.2877 26.9733 24.9144 25.64 24.9144 23.96C24.9144 21.9333 25.4344 19.8267 26.4744 17.64C27.541 15.4267 28.9144 13.6 30.5944 12.16C32.301 10.6933 34.0477 9.96 35.8344 9.96C36.661 9.96 37.3277 10.1333 37.8344 10.48C38.3677 10.8 38.6344 11.24 38.6344 11.8C38.6344 12.2 38.4077 12.8133 37.9544 13.64C37.741 14.0133 37.5144 14.2 37.2744 14.2C37.0877 14.2 36.9277 14.12 36.7944 13.96C36.0744 13.24 35.261 12.88 34.3544 12.88C33.3677 12.88 32.4744 13.2533 31.6744 14C30.901 14.7467 30.2877 15.7733 29.8344 17.08C29.4077 18.36 29.1944 19.8 29.1944 21.4C29.1944 22.84 29.381 23.8933 29.7544 24.56C30.1544 25.2 30.781 25.52 31.6344 25.52C33.0477 25.52 34.301 24.5333 35.3944 22.56C35.5277 22.2667 35.6344 22.08 35.7144 22C35.821 21.8933 35.941 21.84 36.0744 21.84C36.341 21.84 36.4744 22.08 36.4744 22.56C36.4744 23.4667 36.1144 24.4667 35.3944 25.56C34.6744 26.6267 33.741 27.5333 32.5944 28.28C31.4744 29.0267 30.3277 29.4 29.1544 29.4ZM45.3219 29.4C44.0419 29.4 42.9219 29.16 41.9619 28.68C41.0285 28.2 40.3085 27.6133 39.8019 26.92C39.3219 26.2 39.0552 25.4933 39.0019 24.8C39.0019 24.1333 39.1885 23.4133 39.5619 22.64C39.9619 21.84 40.4285 21.16 40.9619 20.6C41.4952 20.04 41.9085 19.76 42.2019 19.76C42.3352 19.76 42.4285 19.92 42.4819 20.24C42.6952 21.8667 42.9085 23.1067 43.1219 23.96C43.3619 24.7867 43.7352 25.4267 44.2419 25.88C44.7752 26.3067 45.5619 26.52 46.6019 26.52C48.0419 26.52 49.1219 26.1467 49.8419 25.4C50.5885 24.6533 50.9619 23.64 50.9619 22.36C50.9619 21.5067 50.8019 20.76 50.4819 20.12C50.1619 19.48 49.5885 18.64 48.7619 17.6L44.9619 13.12C44.3752 12.4267 43.9619 11.7867 43.7219 11.2C43.5085 10.5867 43.4019 9.90667 43.4019 9.16C43.4019 7.77333 43.7485 6.44 44.4419 5.16C45.1352 3.88 46.1485 2.84 47.4819 2.04C48.8419 1.24 50.4552 0.839998 52.3219 0.839998C53.8952 0.839998 55.1219 1.14666 56.0019 1.76C56.9085 2.37333 57.3619 3.24 57.3619 4.36C57.3619 4.81333 57.2952 5.26667 57.1619 5.72C57.0285 6.14667 56.8552 6.53333 56.6419 6.88C56.3485 7.33333 56.0819 7.65333 55.8419 7.84C55.6285 8.02667 55.3885 8.12 55.1219 8.12C54.8285 8.12 54.6285 8 54.5219 7.76C54.4152 7.49333 54.3352 7.13333 54.2819 6.68C54.2019 5.66667 53.9219 4.89333 53.4419 4.36C52.9885 3.8 52.1885 3.52 51.0419 3.52C49.8419 3.52 48.9085 3.82667 48.2419 4.44C47.5752 5.02667 47.2419 5.8 47.2419 6.76C47.2419 7.32 47.3485 7.84 47.5619 8.32C47.7752 8.77333 48.1085 9.26667 48.5619 9.8L52.4019 14.2C53.3352 15.24 54.0152 16.24 54.4419 17.2C54.8685 18.16 55.0819 19.1733 55.0819 20.24C55.0819 21.84 54.6285 23.3467 53.7219 24.76C52.8152 26.1733 51.6019 27.3067 50.0819 28.16C48.5885 28.9867 47.0019 29.4 45.3219 29.4Z" fill="black"/>
</svg>
