<svg width="28" height="28" viewBox="0 0 28 28" fill="none" xmlns="http://www.w3.org/2000/svg">
<g clip-path="url(#clip0_2557_1875)">
<path fill-rule="evenodd" clip-rule="evenodd" d="M17.5001 22.1668C17.5003 22.7555 17.2779 23.3225 16.8777 23.7541C16.4774 24.1858 15.9287 24.4502 15.3417 24.4943L15.1667 24.5002H12.8334C12.2447 24.5003 11.6777 24.278 11.2461 23.8777C10.8144 23.4775 10.5501 22.9288 10.5059 22.3418L10.5001 22.1668H17.5001ZM14.0001 2.3335C16.1175 2.33346 18.1523 3.15587 19.675 4.62725C21.1977 6.09863 22.0895 8.10393 22.1621 10.2202L22.1667 10.5002V14.8915L24.2924 19.1428C24.3852 19.3283 24.4316 19.5335 24.4277 19.7409C24.4238 19.9483 24.3697 20.1516 24.2701 20.3335C24.1704 20.5154 24.0281 20.6704 23.8555 20.7853C23.6828 20.9002 23.4848 20.9715 23.2786 20.9932L23.1444 21.0002H4.85573C4.64826 21.0002 4.44386 20.95 4.26006 20.8537C4.07626 20.7575 3.91853 20.6181 3.80039 20.4476C3.68225 20.277 3.60722 20.0804 3.58174 19.8745C3.55626 19.6686 3.58107 19.4595 3.65407 19.2653L3.70773 19.1428L5.8334 14.8915V10.5002C5.8334 8.33423 6.69381 6.257 8.22536 4.72546C9.75691 3.19391 11.8341 2.3335 14.0001 2.3335ZM14.0001 4.66683C12.4969 4.66692 11.0517 5.24729 9.96599 6.28693C8.88028 7.32657 8.23781 8.7452 8.17257 10.247L8.16673 10.5002V14.8915C8.16675 15.1808 8.11294 15.4677 8.00807 15.7373L7.92057 15.9357L6.55557 18.6668H21.4457L20.0807 15.9345C19.9512 15.6758 19.8709 15.3953 19.8439 15.1073L19.8334 14.8915V10.5002C19.8334 8.95307 19.2188 7.46934 18.1249 6.37537C17.0309 5.28141 15.5472 4.66683 14.0001 4.66683Z" fill="black"/>
</g>
<defs>
<clipPath id="clip0_2557_1875">
<rect width="28" height="28" fill="white"/>
</clipPath>
</defs>
</svg>
