<svg width="25" height="26" viewBox="0 0 25 26" fill="none" xmlns="http://www.w3.org/2000/svg">
<path d="M2 13C2 15.1756 2.61581 17.3023 3.76957 19.1113C4.92332 20.9202 6.5632 22.3301 8.48182 23.1627C10.4004 23.9952 12.5116 24.2131 14.5484 23.7886C16.5852 23.3642 18.4562 22.3165 19.9246 20.7782C21.3931 19.2398 22.3931 17.2798 22.7982 15.146C23.2034 13.0122 22.9954 10.8005 22.2007 8.79048C21.406 6.78049 20.0602 5.06253 18.3335 3.85383C16.6068 2.64514 14.5767 2 12.5 2C9.56461 2.01157 6.74713 3.21149 4.63667 5.34889L2 8.11111" stroke="#D8D4E5" stroke-width="2.55555" stroke-linecap="round" stroke-linejoin="round"/>
<path d="M2 2V8.11111H7.83333M12.5 6.88889V13L17.1667 15.4444" stroke="#D8D4E5" stroke-width="2.55555" stroke-linecap="round" stroke-linejoin="round"/>
</svg>
