<svg width="45" height="45" viewBox="0 0 45 45" fill="none" xmlns="http://www.w3.org/2000/svg">
<path d="M41.85 12.15H31.68L27 10.2015V9.3375C28.5525 8.937 29.7 7.524 29.7 5.85C29.7 3.8655 28.0845 2.25 26.1 2.25C24.1155 2.25 22.5 3.8655 22.5 5.85C22.5 6.345 22.905 6.75 23.4 6.75C23.895 6.75 24.3 6.345 24.3 5.85C24.3 4.8555 25.1055 4.05 26.1 4.05C27.0945 4.05 27.9 4.8555 27.9 5.85C27.9 6.8445 27.0945 7.65 26.1 7.65C25.605 7.65 25.2 8.055 25.2 8.55V10.2015L20.52 12.15H10.35C9.855 12.15 9.45 12.555 9.45 13.05V23.85C9.45 24.345 9.855 24.75 10.35 24.75H15.75V27.45H5.4C3.663 27.45 2.25 28.863 2.25 30.6C2.25 31.482 2.6145 32.2785 3.1995 32.85C2.89882 33.1425 2.65986 33.4923 2.49677 33.8788C2.33368 34.2653 2.24977 34.6805 2.25 35.1C2.25 35.982 2.6145 36.7785 3.1995 37.35C2.89882 37.6425 2.65986 37.9923 2.49677 38.3788C2.33368 38.7653 2.24977 39.1805 2.25 39.6C2.25 41.337 3.663 42.75 5.4 42.75H35.55C36.045 42.75 36.45 42.345 36.45 41.85V24.75H41.85C42.345 24.75 42.75 24.345 42.75 23.85V13.05C42.75 12.555 42.345 12.15 41.85 12.15ZM26.1 11.7765L30.5595 13.6305C30.2715 15.84 28.3815 17.55 26.1 17.55C23.8185 17.55 21.9285 15.84 21.6405 13.6305L26.1 11.7765ZM27 40.95H5.4C4.6575 40.95 4.05 40.3425 4.05 39.6C4.05 38.8575 4.6575 38.25 5.4 38.25H27C27.7425 38.25 28.35 38.8575 28.35 39.6C28.35 40.3425 27.7425 40.95 27 40.95ZM27 36.45H5.4C4.6575 36.45 4.05 35.8425 4.05 35.1C4.05 34.3575 4.6575 33.75 5.4 33.75H27C27.7425 33.75 28.35 34.3575 28.35 35.1C28.35 35.8425 27.7425 36.45 27 36.45ZM27 31.95H5.4C4.6575 31.95 4.05 31.3425 4.05 30.6C4.05 29.8575 4.6575 29.25 5.4 29.25H27C27.7425 29.25 28.35 29.8575 28.35 30.6C28.35 31.3425 27.7425 31.95 27 31.95ZM40.95 22.95H36.45V21.15C36.45 20.655 36.045 20.25 35.55 20.25C35.055 20.25 34.65 20.655 34.65 21.15V40.95H29.8395C30.0375 40.5405 30.15 40.0815 30.15 39.6C30.15 38.718 29.7855 37.9215 29.2005 37.35C29.5012 37.0575 29.7401 36.7077 29.9032 36.3212C30.0663 35.9347 30.1502 35.5195 30.15 35.1C30.15 34.218 29.7855 33.4215 29.2005 32.85C29.5012 32.5575 29.7401 32.2077 29.9032 31.8212C30.0663 31.4347 30.1502 31.0195 30.15 30.6C30.15 28.863 28.737 27.45 27 27.45H17.55V21.15C17.55 20.655 17.145 20.25 16.65 20.25C16.155 20.25 15.75 20.655 15.75 21.15V22.95H11.25V13.95H19.872C20.313 16.9965 22.932 19.35 26.1 19.35C29.268 19.35 31.887 16.9965 32.328 13.95H40.95V22.95Z" fill="black"/>
</svg>
