<svg width="170" height="170" viewBox="0 0 170 170" fill="none" xmlns="http://www.w3.org/2000/svg">
<path d="M76.2712 62.0159V62.9039H73.9912V70.3799H72.8992V62.9039H70.6072V62.0159H76.2712ZM80.4834 70.4879C79.8674 70.4879 79.3074 70.3479 78.8034 70.0679C78.3074 69.7879 77.9154 69.3919 77.6274 68.8799C77.3474 68.3599 77.2074 67.7599 77.2074 67.0799C77.2074 66.4079 77.3514 65.8159 77.6394 65.3039C77.9354 64.7839 78.3354 64.3879 78.8394 64.1159C79.3434 63.8359 79.9074 63.6959 80.5314 63.6959C81.1554 63.6959 81.7194 63.8359 82.2234 64.1159C82.7274 64.3879 83.1234 64.7799 83.4114 65.2919C83.7074 65.8039 83.8554 66.3999 83.8554 67.0799C83.8554 67.7599 83.7034 68.3599 83.3994 68.8799C83.1034 69.3919 82.6994 69.7879 82.1874 70.0679C81.6754 70.3479 81.1074 70.4879 80.4834 70.4879ZM80.4834 69.5279C80.8754 69.5279 81.2434 69.4359 81.5874 69.2519C81.9314 69.0679 82.2074 68.7919 82.4154 68.4239C82.6314 68.0559 82.7394 67.6079 82.7394 67.0799C82.7394 66.5519 82.6354 66.1039 82.4274 65.7359C82.2194 65.3679 81.9474 65.0959 81.6114 64.9199C81.2754 64.7359 80.9114 64.6439 80.5194 64.6439C80.1194 64.6439 79.7514 64.7359 79.4154 64.9199C79.0874 65.0959 78.8234 65.3679 78.6234 65.7359C78.4234 66.1039 78.3234 66.5519 78.3234 67.0799C78.3234 67.6159 78.4194 68.0679 78.6114 68.4359C78.8114 68.8039 79.0754 69.0799 79.4034 69.2639C79.7314 69.4399 80.0914 69.5279 80.4834 69.5279ZM86.6232 64.7039V68.5799C86.6232 68.8999 86.6912 69.1279 86.8272 69.2639C86.9632 69.3919 87.1992 69.4559 87.5352 69.4559H88.3392V70.3799H87.3552C86.7472 70.3799 86.2912 70.2399 85.9872 69.9599C85.6832 69.6799 85.5312 69.2199 85.5312 68.5799V64.7039H84.6792V63.8039H85.5312V62.1479H86.6232V63.8039H88.3392V64.7039H86.6232ZM89.2543 67.0679C89.2543 66.3959 89.3903 65.8079 89.6623 65.3039C89.9343 64.7919 90.3063 64.3959 90.7783 64.1159C91.2583 63.8359 91.7903 63.6959 92.3743 63.6959C92.9503 63.6959 93.4503 63.8199 93.8743 64.0679C94.2983 64.3159 94.6143 64.6279 94.8223 65.0039V63.8039H95.9263V70.3799H94.8223V69.1559C94.6063 69.5399 94.2823 69.8599 93.8503 70.1159C93.4263 70.3639 92.9303 70.4879 92.3623 70.4879C91.7783 70.4879 91.2503 70.3439 90.7783 70.0559C90.3063 69.7679 89.9343 69.3639 89.6623 68.8439C89.3903 68.3239 89.2543 67.7319 89.2543 67.0679ZM94.8223 67.0799C94.8223 66.5839 94.7223 66.1519 94.5223 65.7839C94.3223 65.4159 94.0503 65.1359 93.7063 64.9439C93.3703 64.7439 92.9983 64.6439 92.5903 64.6439C92.1823 64.6439 91.8103 64.7399 91.4743 64.9319C91.1383 65.1239 90.8703 65.4039 90.6703 65.7719C90.4703 66.1399 90.3703 66.5719 90.3703 67.0679C90.3703 67.5719 90.4703 68.0119 90.6703 68.3879C90.8703 68.7559 91.1383 69.0399 91.4743 69.2399C91.8103 69.4319 92.1823 69.5279 92.5903 69.5279C92.9983 69.5279 93.3703 69.4319 93.7063 69.2399C94.0503 69.0399 94.3223 68.7559 94.5223 68.3879C94.7223 68.0119 94.8223 67.5759 94.8223 67.0799ZM98.8637 61.4999V70.3799H97.7717V61.4999H98.8637Z" fill="#737373"/>
<path d="M66.9097 88.9161V85.1001H73.5577V102.62H69.2857V88.9161H66.9097ZM88.7012 88.6761H81.2132V91.9881C81.5332 91.6361 81.9812 91.3481 82.5572 91.1241C83.1332 90.9001 83.7572 90.7881 84.4292 90.7881C85.6292 90.7881 86.6212 91.0601 87.4052 91.6041C88.2052 92.1481 88.7892 92.8521 89.1572 93.7161C89.5252 94.5801 89.7092 95.5161 89.7092 96.5241C89.7092 98.3961 89.1812 99.8841 88.1252 100.988C87.0692 102.076 85.5812 102.62 83.6612 102.62C82.3812 102.62 81.2692 102.404 80.3252 101.972C79.3812 101.524 78.6532 100.908 78.1412 100.124C77.6292 99.3401 77.3492 98.4361 77.3012 97.4121H81.3092C81.4052 97.9081 81.6372 98.3241 82.0052 98.6601C82.3732 98.9801 82.8772 99.1401 83.5172 99.1401C84.2692 99.1401 84.8292 98.9001 85.1972 98.4201C85.5652 97.9401 85.7492 97.3001 85.7492 96.5001C85.7492 95.7161 85.5572 95.1161 85.1732 94.7001C84.7892 94.2841 84.2292 94.0761 83.4932 94.0761C82.9492 94.0761 82.5012 94.2121 82.1492 94.4841C81.7972 94.7401 81.5652 95.0841 81.4532 95.5161H77.4932V85.0761H88.7012V88.6761ZM103.159 88.1721L97.1345 102.62H92.9345L99.0305 88.6281H91.5665V85.1241H103.159V88.1721Z" fill="#0A0A0A"/>
<path d="M85 1C97.8846 1 110.596 3.96399 122.152 9.66269C133.708 15.3614 143.798 23.642 151.642 33.864C159.485 44.0861 164.872 55.9754 167.386 68.6124C169.9 81.2494 169.473 94.2953 166.138 106.741C162.803 119.186 156.65 130.698 148.155 140.385C139.659 150.072 129.049 157.675 117.145 162.606C105.242 167.537 92.3631 169.663 79.5061 168.82C66.6491 167.977 54.1583 164.188 43 157.746L54.76 137.377C62.794 142.016 71.7874 144.744 81.0444 145.351C90.3014 145.957 99.574 144.426 108.145 140.876C116.715 137.326 124.355 131.852 130.471 124.877C136.588 117.903 141.018 109.614 143.419 100.653C145.82 91.6926 146.128 82.2996 144.318 73.2009C142.508 64.1023 138.629 55.542 132.982 48.1821C127.335 40.8223 120.07 34.8602 111.75 30.7571C103.429 26.6541 94.2769 24.52 85 24.52V1Z" fill="#14B8A6" stroke="white" stroke-width="1.12"/>
<path d="M12.2539 43C19.6264 30.2304 30.2304 19.6264 43 12.2539C55.7696 4.88133 70.2549 1 85 1V24.52C74.3835 24.52 63.9541 27.3146 54.76 32.6228C45.5659 37.931 37.931 45.5659 32.6228 54.76L12.2539 43Z" fill="#FACC15" stroke="white" stroke-width="1.12"/>
<path d="M43 157.746C33.4468 152.231 25.0736 144.887 18.3583 136.136C11.643 127.384 6.71727 117.396 3.86223 106.741C1.00719 96.0856 0.278792 84.9725 1.71863 74.0358C3.15847 63.0991 6.73835 52.5531 12.2539 43L32.6228 54.76C28.6516 61.6383 26.0741 69.2314 25.0374 77.1058C24.0007 84.9802 24.5252 92.9817 26.5808 100.653C28.6364 108.325 32.183 115.517 37.018 121.818C41.853 128.119 47.8817 133.406 54.76 137.377L43 157.746Z" fill="#3B82F6" stroke="white" stroke-width="1.12"/>
</svg>
