<svg width="22" height="29" viewBox="0 0 22 29" fill="none" xmlns="http://www.w3.org/2000/svg">
<path d="M0 0H21.75V29H0V0ZM19.9375 27.1875V1.8125H1.8125V27.1875H19.9375ZM10.875 7.25V9.0625H3.625V7.25H10.875ZM10.875 14.5V16.3125H3.625V14.5H10.875ZM10.875 21.75V23.5625H3.625V21.75H10.875ZM17.856 6.07471L14.5 9.43066L12.0503 6.98096L13.3247 5.70654L14.5 6.88184L16.5815 4.80029L17.856 6.07471ZM17.856 13.3247L14.5 16.6807L12.0503 14.231L13.3247 12.9565L14.5 14.1318L16.5815 12.0503L17.856 13.3247ZM17.856 20.5747L14.5 23.9307L12.0503 21.481L13.3247 20.2065L14.5 21.3818L16.5815 19.3003L17.856 20.5747Z" fill="#D8D4E5"/>
</svg>
