<svg width="34" height="42" viewBox="0 0 34 42" fill="none" xmlns="http://www.w3.org/2000/svg">
<path d="M18.9615 28.361C18.9615 28.5445 18.8927 28.7204 18.77 28.8501C18.6474 28.9798 18.4811 29.0527 18.3077 29.0527C18.1343 29.0527 17.968 28.9798 17.8454 28.8501C17.7227 28.7204 17.6538 28.5445 17.6538 28.361V25.5942C17.6538 25.4107 17.7227 25.2348 17.8454 25.1051C17.968 24.9754 18.1343 24.9025 18.3077 24.9025C18.4811 24.9025 18.6474 24.9754 18.77 25.1051C18.8927 25.2348 18.9615 25.4107 18.9615 25.5942V28.361ZM21.5769 25.5942C21.5769 25.4107 21.508 25.2348 21.3854 25.1051C21.2628 24.9754 21.0965 24.9025 20.9231 24.9025C20.7497 24.9025 20.5834 24.9754 20.4607 25.1051C20.3381 25.2348 20.2692 25.4107 20.2692 25.5942V28.361C20.2692 28.5445 20.3381 28.7204 20.4607 28.8501C20.5834 28.9798 20.7497 29.0527 20.9231 29.0527C21.0965 29.0527 21.2628 28.9798 21.3854 28.8501C21.508 28.7204 21.5769 28.5445 21.5769 28.361V25.5942ZM22.8846 25.5942V28.361C22.8846 28.5445 22.9535 28.7204 23.0761 28.8501C23.1987 28.9798 23.3651 29.0527 23.5385 29.0527C23.7119 29.0527 23.8782 28.9798 24.0008 28.8501C24.1234 28.7204 24.1923 28.5445 24.1923 28.361V25.5942C24.1923 25.4107 24.1234 25.2348 24.0008 25.1051C23.8782 24.9754 23.7119 24.9025 23.5385 24.9025C23.3651 24.9025 23.1987 24.9754 23.0761 25.1051C22.9535 25.2348 22.8846 25.4107 22.8846 25.5942ZM25.5 28.361C25.5 28.5445 25.5689 28.7204 25.6915 28.8501C25.8141 28.9798 25.9804 29.0527 26.1538 29.0527C26.3273 29.0527 26.4936 28.9798 26.6162 28.8501C26.7388 28.7204 26.8077 28.5445 26.8077 28.361V25.5942C26.8077 25.4107 26.7388 25.2348 26.6162 25.1051C26.4936 24.9754 26.3273 24.9025 26.1538 24.9025C25.9804 24.9025 25.8141 24.9754 25.6915 25.1051C25.5689 25.2348 25.5 25.4107 25.5 25.5942V28.361ZM8.5 25.5942C8.5 25.4107 8.43111 25.2348 8.30849 25.1051C8.18587 24.9754 8.01956 24.9025 7.84615 24.9025C7.67274 24.9025 7.50643 24.9754 7.38381 25.1051C7.26119 25.2348 7.19231 25.4107 7.19231 25.5942V28.361C7.19231 28.5445 7.26119 28.7204 7.38381 28.8501C7.50643 28.9798 7.67274 29.0527 7.84615 29.0527C8.01956 29.0527 8.18587 28.9798 8.30849 28.8501C8.43111 28.7204 8.5 28.5445 8.5 28.361V25.5942ZM11.1154 25.5942C11.1154 25.4107 11.0465 25.2348 10.9239 25.1051C10.8013 24.9754 10.6349 24.9025 10.4615 24.9025C10.2881 24.9025 10.1218 24.9754 9.9992 25.1051C9.87658 25.2348 9.80769 25.4107 9.80769 25.5942V28.361C9.80769 28.5445 9.87658 28.7204 9.9992 28.8501C10.1218 28.9798 10.2881 29.0527 10.4615 29.0527C10.6349 29.0527 10.8013 28.9798 10.9239 28.8501C11.0465 28.7204 11.1154 28.5445 11.1154 28.361V25.5942ZM13.7308 25.5942C13.7308 25.4107 13.6619 25.2348 13.5393 25.1051C13.4166 24.9754 13.2503 24.9025 13.0769 24.9025C12.9035 24.9025 12.7372 24.9754 12.6146 25.1051C12.492 25.2348 12.4231 25.4107 12.4231 25.5942V28.361C12.4231 28.5445 12.492 28.7204 12.6146 28.8501C12.7372 28.9798 12.9035 29.0527 13.0769 29.0527C13.2503 29.0527 13.4166 28.9798 13.5393 28.8501C13.6619 28.7204 13.7308 28.5445 13.7308 28.361V25.5942ZM16.3462 25.5942C16.3462 25.4107 16.2773 25.2348 16.1546 25.1051C16.032 24.9754 15.8657 24.9025 15.6923 24.9025C15.5189 24.9025 15.3526 24.9754 15.23 25.1051C15.1073 25.2348 15.0385 25.4107 15.0385 25.5942V28.361C15.0385 28.5445 15.1073 28.7204 15.23 28.8501C15.3526 28.9798 15.5189 29.0527 15.6923 29.0527C15.8657 29.0527 16.032 28.9798 16.1546 28.8501C16.2773 28.7204 16.3462 28.5445 16.3462 28.361V25.5942ZM17 22.1357C17.1734 22.1357 17.3397 22.0628 17.4623 21.9331C17.585 21.8034 17.6538 21.6274 17.6538 21.444V18.6772C17.6538 18.4937 17.585 18.3178 17.4623 18.188C17.3397 18.0583 17.1734 17.9855 17 17.9855C16.8266 17.9855 16.6603 18.0583 16.5377 18.188C16.415 18.3178 16.3462 18.4937 16.3462 18.6772V21.444C16.3462 21.6274 16.415 21.8034 16.5377 21.9331C16.6603 22.0628 16.8266 22.1357 17 22.1357ZM19.6154 22.1357C19.7888 22.1357 19.9551 22.0628 20.0777 21.9331C20.2003 21.8034 20.2692 21.6274 20.2692 21.444V18.6772C20.2692 18.4937 20.2003 18.3178 20.0777 18.188C19.9551 18.0583 19.7888 17.9855 19.6154 17.9855C19.442 17.9855 19.2757 18.0583 19.153 18.188C19.0304 18.3178 18.9615 18.4937 18.9615 18.6772V21.444C18.9615 21.6274 19.0304 21.8034 19.153 21.9331C19.2757 22.0628 19.442 22.1357 19.6154 22.1357ZM22.2308 22.1357C22.4042 22.1357 22.5705 22.0628 22.6931 21.9331C22.8157 21.8034 22.8846 21.6274 22.8846 21.444V18.6772C22.8846 18.4937 22.8157 18.3178 22.6931 18.188C22.5705 18.0583 22.4042 17.9855 22.2308 17.9855C22.0574 17.9855 21.891 18.0583 21.7684 18.188C21.6458 18.3178 21.5769 18.4937 21.5769 18.6772V21.444C21.5769 21.6274 21.6458 21.8034 21.7684 21.9331C21.891 22.0628 22.0574 22.1357 22.2308 22.1357ZM24.8462 22.1357C25.0196 22.1357 25.1859 22.0628 25.3085 21.9331C25.4311 21.8034 25.5 21.6274 25.5 21.444V18.6772C25.5 18.4937 25.4311 18.3178 25.3085 18.188C25.1859 18.0583 25.0196 17.9855 24.8462 17.9855C24.6727 17.9855 24.5064 18.0583 24.3838 18.188C24.2612 18.3178 24.1923 18.4937 24.1923 18.6772V21.444C24.1923 21.6274 24.2612 21.8034 24.3838 21.9331C24.5064 22.0628 24.6727 22.1357 24.8462 22.1357ZM27.4615 22.1357C27.6349 22.1357 27.8013 22.0628 27.9239 21.9331C28.0465 21.8034 28.1154 21.6274 28.1154 21.444V18.6772C28.1154 18.4937 28.0465 18.3178 27.9239 18.188C27.8013 18.0583 27.6349 17.9855 27.4615 17.9855C27.2881 17.9855 27.1218 18.0583 26.9992 18.188C26.8766 18.3178 26.8077 18.4937 26.8077 18.6772V21.444C26.8077 21.6274 26.8766 21.8034 26.9992 21.9331C27.1218 22.0628 27.2881 22.1357 27.4615 22.1357ZM19.6154 31.8195C19.442 31.8195 19.2757 31.8924 19.153 32.0221C19.0304 32.1518 18.9615 32.3278 18.9615 32.5112V35.278C18.9615 35.4615 19.0304 35.6374 19.153 35.7672C19.2757 35.8969 19.442 35.9697 19.6154 35.9697C19.7888 35.9697 19.9551 35.8969 20.0777 35.7672C20.2003 35.6374 20.2692 35.4615 20.2692 35.278V32.5112C20.2692 32.3278 20.2003 32.1518 20.0777 32.0221C19.9551 31.8924 19.7888 31.8195 19.6154 31.8195ZM22.2308 31.8195C22.0574 31.8195 21.891 31.8924 21.7684 32.0221C21.6458 32.1518 21.5769 32.3278 21.5769 32.5112V35.278C21.5769 35.4615 21.6458 35.6374 21.7684 35.7672C21.891 35.8969 22.0574 35.9697 22.2308 35.9697C22.4042 35.9697 22.5705 35.8969 22.6931 35.7672C22.8157 35.6374 22.8846 35.4615 22.8846 35.278V32.5112C22.8846 32.3278 22.8157 32.1518 22.6931 32.0221C22.5705 31.8924 22.4042 31.8195 22.2308 31.8195ZM24.8462 31.8195C24.6727 31.8195 24.5064 31.8924 24.3838 32.0221C24.2612 32.1518 24.1923 32.3278 24.1923 32.5112V35.278C24.1923 35.4615 24.2612 35.6374 24.3838 35.7672C24.5064 35.8969 24.6727 35.9697 24.8462 35.9697C25.0196 35.9697 25.1859 35.8969 25.3085 35.7672C25.4311 35.6374 25.5 35.4615 25.5 35.278V32.5112C25.5 32.3278 25.4311 32.1518 25.3085 32.0221C25.1859 31.8924 25.0196 31.8195 24.8462 31.8195ZM9.15385 31.8195C8.98044 31.8195 8.81413 31.8924 8.69151 32.0221C8.56889 32.1518 8.5 32.3278 8.5 32.5112V35.278C8.5 35.4615 8.56889 35.6374 8.69151 35.7672C8.81413 35.8969 8.98044 35.9697 9.15385 35.9697C9.32726 35.9697 9.49357 35.8969 9.61619 35.7672C9.73881 35.6374 9.80769 35.4615 9.80769 35.278V32.5112C9.80769 32.3278 9.73881 32.1518 9.61619 32.0221C9.49357 31.8924 9.32726 31.8195 9.15385 31.8195ZM11.7692 31.8195C11.5958 31.8195 11.4295 31.8924 11.3069 32.0221C11.1843 32.1518 11.1154 32.3278 11.1154 32.5112V35.278C11.1154 35.4615 11.1843 35.6374 11.3069 35.7672C11.4295 35.8969 11.5958 35.9697 11.7692 35.9697C11.9426 35.9697 12.109 35.8969 12.2316 35.7672C12.3542 35.6374 12.4231 35.4615 12.4231 35.278V32.5112C12.4231 32.3278 12.3542 32.1518 12.2316 32.0221C12.109 31.8924 11.9426 31.8195 11.7692 31.8195ZM14.3846 31.8195C14.2112 31.8195 14.0449 31.8924 13.9223 32.0221C13.7997 32.1518 13.7308 32.3278 13.7308 32.5112V35.278C13.7308 35.4615 13.7997 35.6374 13.9223 35.7672C14.0449 35.8969 14.2112 35.9697 14.3846 35.9697C14.558 35.9697 14.7243 35.8969 14.847 35.7672C14.9696 35.6374 15.0385 35.4615 15.0385 35.278V32.5112C15.0385 32.3278 14.9696 32.1518 14.847 32.0221C14.7243 31.8924 14.558 31.8195 14.3846 31.8195ZM17 31.8195C16.8266 31.8195 16.6603 31.8924 16.5377 32.0221C16.415 32.1518 16.3462 32.3278 16.3462 32.5112V35.278C16.3462 35.4615 16.415 35.6374 16.5377 35.7672C16.6603 35.8969 16.8266 35.9697 17 35.9697C17.1734 35.9697 17.3397 35.8969 17.4623 35.7672C17.585 35.6374 17.6538 35.4615 17.6538 35.278V32.5112C17.6538 32.3278 17.585 32.1518 17.4623 32.0221C17.3397 31.8924 17.1734 31.8195 17 31.8195ZM34 10.3767V13.1435C34 13.327 33.9311 13.5029 33.8085 13.6326C33.6859 13.7624 33.5196 13.8352 33.3462 13.8352H32.6014L28.762 40.914C28.7389 41.0779 28.6608 41.2276 28.5421 41.3357C28.4235 41.4439 28.272 41.5034 28.1154 41.5034H5.88462C5.72797 41.5034 5.57653 41.4439 5.45785 41.3357C5.33917 41.2276 5.26114 41.0779 5.23796 40.914L1.39858 13.8352H0.653846C0.480435 13.8352 0.314127 13.7624 0.191507 13.6326C0.0688873 13.5029 0 13.327 0 13.1435V10.3767C0 10.1933 0.0688873 10.0173 0.191507 9.8876C0.314127 9.75788 0.480435 9.68501 0.653846 9.68501H1.36327C1.83535 6.57718 5.44 4.15138 9.80769 4.15138C10.2007 4.15303 10.5935 4.1745 10.9846 4.21571C11.05 4.22262 11.1154 4.22608 11.1808 4.23369C12.1929 2.89968 13.4777 1.82576 14.9386 1.09266C16.3995 0.359568 17.9985 -0.0136196 19.6154 0.00115595C21.5741 -0.0287126 23.5018 0.52078 25.1812 1.5877C26.8606 2.65462 28.2249 4.19656 29.1203 6.03973C29.8681 6.37799 30.5415 6.87656 31.098 7.50397C31.6545 8.13139 32.082 8.87402 32.3536 9.68501H33.3462C33.5196 9.68501 33.6859 9.75788 33.8085 9.8876C33.9311 10.0173 34 10.1933 34 10.3767ZM9.80769 5.53479C9.57278 5.53516 9.33794 5.54324 9.1035 5.559C9.02635 5.56384 8.95115 5.57352 8.87465 5.58044C8.72165 5.59358 8.56865 5.60741 8.41696 5.62747C8.32738 5.63923 8.24042 5.65514 8.15215 5.66898C8.01812 5.69042 7.88473 5.71186 7.75396 5.73815C7.66242 5.75682 7.5735 5.77827 7.48327 5.79902C7.36042 5.82654 7.23813 5.85675 7.11646 5.88963C7.02623 5.91384 6.93862 5.94082 6.851 5.9671C6.53719 6.06325 6.22818 6.17614 5.92515 6.30534C5.84408 6.34062 5.76431 6.37451 5.68585 6.41256C5.58123 6.46236 5.47988 6.51424 5.37919 6.5675C5.30531 6.60623 5.23142 6.64428 5.1595 6.68509C5.05946 6.7425 4.96335 6.80268 4.86854 6.86355C4.80315 6.90505 4.73777 6.94517 4.67238 6.98875C4.57365 7.05792 4.48081 7.12709 4.38862 7.19626C4.33565 7.23707 4.28008 7.2758 4.22973 7.318C4.12262 7.40738 4.01859 7.50082 3.91785 7.59814C3.89038 7.62442 3.85965 7.64932 3.8335 7.67561C3.71188 7.79654 3.59642 7.92422 3.48762 8.05812C3.45885 8.09409 3.43465 8.13213 3.40719 8.1681C3.33265 8.26494 3.26008 8.36247 3.19535 8.46277C3.16265 8.51465 3.13519 8.5686 3.10446 8.62048C3.05272 8.70762 3.0043 8.79692 2.95931 8.88817C2.93054 8.94696 2.90765 9.00714 2.88281 9.06732C2.84619 9.15447 2.81088 9.24163 2.78212 9.33086C2.76192 9.39433 2.74361 9.45846 2.72719 9.52315C2.71346 9.57572 2.70235 9.62967 2.69123 9.68293H30.9269C30.4203 8.55038 29.5178 7.67022 28.4096 7.22808C28.3869 7.21591 28.3651 7.20204 28.3442 7.18657C27.4813 6.86642 26.5474 6.82762 25.6635 7.07521C25.5803 7.09792 25.4937 7.10308 25.4087 7.09039C25.3236 7.07771 25.2418 7.04742 25.1678 7.00127C25.0938 6.95512 25.0292 6.89401 24.9775 6.82142C24.9259 6.74884 24.8882 6.6662 24.8668 6.57822C24.8453 6.49025 24.8404 6.39866 24.8524 6.30869C24.8644 6.21872 24.893 6.13214 24.9366 6.05387C24.9803 5.97561 25.038 5.9072 25.1066 5.85255C25.1753 5.7979 25.2534 5.75809 25.3365 5.73538C25.9923 5.55684 26.6721 5.49882 27.3465 5.56384C26.4751 4.25587 25.3159 3.19189 23.969 2.46377C22.6221 1.73565 21.1279 1.36525 19.6154 1.38456C18.3168 1.37427 17.0301 1.64734 15.8357 2.1867C14.6413 2.72607 13.5648 3.52015 12.6735 4.51936C14.2241 4.88106 15.6532 5.68011 16.8091 6.83173C16.8714 6.89563 16.9211 6.97203 16.9553 7.05647C16.9894 7.14091 17.0073 7.2317 17.008 7.32354C17.0086 7.41539 16.9919 7.50644 16.959 7.5914C16.926 7.67635 16.8773 7.7535 16.8158 7.81836C16.7544 7.88321 16.6813 7.93446 16.6009 7.96912C16.5205 8.00378 16.4344 8.02115 16.3476 8.02023C16.2607 8.0193 16.175 8.00009 16.0953 7.96373C16.0155 7.92736 15.9435 7.87456 15.8832 7.80842C14.5528 6.53864 12.8631 5.76948 11.0768 5.62056C10.9317 5.60257 10.7872 5.58251 10.6427 5.57075C10.3649 5.54759 10.0863 5.53559 9.80769 5.53479ZM25.6883 11.0684H15.4425L17.3053 15.0111L22.6296 12.5079L25.6883 11.0684ZM13.7308 11.0684H7.19231V19.3689H13.7308V11.0684ZM7.19231 22.1357H13.7308V20.7523H7.19231V22.1357ZM1.30769 12.4518H5.88462V11.0684H1.30769V12.4518ZM31.2793 13.8352H23.0239L17.2655 16.5426C17.1117 16.6147 16.9376 16.6214 16.7793 16.5613C16.621 16.5011 16.4907 16.3787 16.4155 16.2195L15.0385 13.3068V22.8274C15.0385 23.0108 14.9696 23.1868 14.847 23.3165C14.7243 23.4462 14.558 23.5191 14.3846 23.5191H6.53846C6.36505 23.5191 6.19874 23.4462 6.07612 23.3165C5.9535 23.1868 5.88462 23.0108 5.88462 22.8274V13.8352H2.72065L6.44758 40.12H27.5524L31.2793 13.8352ZM32.6923 11.0684H28.9085L25.9662 12.4518H32.6923V11.0684Z" fill="black"/>
</svg>
