<svg width="21" height="20" viewBox="0 0 21 20" fill="none" xmlns="http://www.w3.org/2000/svg">
<path fill-rule="evenodd" clip-rule="evenodd" d="M3.03728 9.72931C3.03728 13.788 5.97995 16.5533 9.28528 17.1253C9.37519 17.1409 9.46116 17.174 9.53826 17.2228C9.61536 17.2716 9.6821 17.3352 9.73466 17.4098C9.78722 17.4844 9.82457 17.5686 9.84458 17.6576C9.86459 17.7466 9.86687 17.8387 9.85128 17.9286C9.8357 18.0186 9.80256 18.1045 9.75375 18.1816C9.70495 18.2587 9.64143 18.3255 9.56684 18.378C9.49224 18.4306 9.40802 18.4679 9.31899 18.4879C9.22996 18.5079 9.13786 18.5102 9.04795 18.4946C5.16662 17.8226 1.64795 14.5506 1.64795 9.72931C1.64795 7.67998 2.57995 6.06931 3.66795 4.84531C4.44795 3.96798 5.33995 3.25464 6.05728 2.70931H3.87595C3.69914 2.70931 3.52957 2.63907 3.40454 2.51405C3.27952 2.38902 3.20928 2.21945 3.20928 2.04264C3.20928 1.86583 3.27952 1.69626 3.40454 1.57124C3.52957 1.44621 3.69914 1.37598 3.87595 1.37598H7.87595C8.05276 1.37598 8.22233 1.44621 8.34735 1.57124C8.47238 1.69626 8.54262 1.86583 8.54262 2.04264V6.04264C8.54262 6.21945 8.47238 6.38902 8.34735 6.51405C8.22233 6.63907 8.05276 6.70931 7.87595 6.70931C7.69914 6.70931 7.52957 6.63907 7.40454 6.51405C7.27952 6.38902 7.20928 6.21945 7.20928 6.04264V3.58131L7.20795 3.58398C6.44528 4.15731 5.51462 4.85998 4.70795 5.76798C3.75462 6.83998 3.03728 8.13731 3.03728 9.72931ZM17.8479 10.2706C17.8479 6.25464 14.9679 3.50664 11.7053 2.89331C11.6143 2.87788 11.5274 2.8445 11.4495 2.79511C11.3716 2.74571 11.3043 2.68131 11.2516 2.60564C11.1988 2.52997 11.1617 2.44455 11.1423 2.35438C11.1229 2.2642 11.1217 2.17107 11.1387 2.08041C11.1557 1.98976 11.1906 1.9034 11.2413 1.82636C11.2921 1.74933 11.3576 1.68318 11.4342 1.63175C11.5108 1.58033 11.5968 1.54467 11.6873 1.52685C11.7778 1.50903 11.8709 1.50942 11.9613 1.52798C15.7933 2.24798 19.2373 5.50131 19.2373 10.2706C19.2373 12.32 18.3053 13.9293 17.2173 15.1546C16.4373 16.032 15.5453 16.7453 14.8279 17.2906H17.0093C17.1861 17.2906 17.3557 17.3609 17.4807 17.4859C17.6057 17.6109 17.6759 17.7805 17.6759 17.9573C17.6759 18.1341 17.6057 18.3037 17.4807 18.4287C17.3557 18.5537 17.1861 18.624 17.0093 18.624H13.0093C12.8325 18.624 12.6629 18.5537 12.5379 18.4287C12.4129 18.3037 12.3426 18.1341 12.3426 17.9573V13.9573C12.3426 13.7805 12.4129 13.6109 12.5379 13.4859C12.6629 13.3609 12.8325 13.2906 13.0093 13.2906C13.1861 13.2906 13.3557 13.3609 13.4807 13.4859C13.6057 13.6109 13.6759 13.7805 13.6759 13.9573V16.4173H13.6786C14.4399 15.8413 15.372 15.14 16.1773 14.2306C17.1306 13.16 17.8479 11.864 17.8479 10.2706Z" fill="white"/>
</svg>
