<svg width="39" height="37" viewBox="0 0 39 37" fill="none" xmlns="http://www.w3.org/2000/svg">
<path fill-rule="evenodd" clip-rule="evenodd" d="M0 0H2.4375V34.6875H39V37H0V0ZM36.1164 7.19881C36.2404 7.29503 36.3431 7.41349 36.4188 7.5474C36.4945 7.68132 36.5416 7.82807 36.5574 7.97926C36.5732 8.13046 36.5575 8.28313 36.5111 8.42856C36.4648 8.57399 36.3886 8.70932 36.2871 8.82681L25.3183 21.5456C25.2105 21.6704 25.0763 21.7725 24.9245 21.8451C24.7726 21.9178 24.6063 21.9595 24.4364 21.9676C24.2665 21.9757 24.0967 21.9499 23.938 21.8919C23.7792 21.834 23.635 21.7451 23.5146 21.6311L17.2087 15.6487L8.29725 27.2736C8.10231 27.5088 7.81886 27.6631 7.50648 27.7042C7.19411 27.7452 6.87712 27.6698 6.62213 27.4938C6.36714 27.3177 6.19401 27.0548 6.13911 26.7601C6.08422 26.4655 6.15183 26.1622 6.32775 25.9139L16.0778 13.1951C16.1812 13.0599 16.3144 12.9475 16.4681 12.8658C16.6217 12.7841 16.7922 12.7349 16.9679 12.7217C17.1435 12.7085 17.32 12.7316 17.4853 12.7894C17.6506 12.8472 17.8007 12.9383 17.9254 13.0564L24.2848 19.092L34.4004 7.36069C34.5019 7.2431 34.6267 7.14562 34.7679 7.07384C34.909 7.00205 35.0637 6.95737 35.2231 6.94233C35.3824 6.9273 35.5434 6.94221 35.6967 6.98622C35.8499 7.03023 35.9926 7.10247 36.1164 7.19881Z" fill="#AD00FF" fill-opacity="0.992157"/>
</svg>
